<svg width="59" height="53" viewBox="0 0 59 53" fill="none" xmlns="http://www.w3.org/2000/svg">
<g clip-path="url(#clip0_7_17)">
<path d="M2.43848 2.20834H12.1919L18.7268 31.7779C18.9497 32.7946 19.5605 33.7079 20.452 34.3579C21.3436 35.0079 22.4592 35.3532 23.6035 35.3333H47.3044C48.4488 35.3532 49.5644 35.0079 50.4559 34.3579C51.3475 33.7079 51.9582 32.7946 52.1812 31.7779L56.0826 13.25H14.6303M24.3838 46.375C24.3838 47.5946 23.2921 48.5833 21.9454 48.5833C20.5987 48.5833 19.5071 47.5946 19.5071 46.375C19.5071 45.1554 20.5987 44.1667 21.9454 44.1667C23.2921 44.1667 24.3838 45.1554 24.3838 46.375ZM51.2058 46.375C51.2058 47.5946 50.1141 48.5833 48.7675 48.5833C47.4208 48.5833 46.3291 47.5946 46.3291 46.375C46.3291 45.1554 47.4208 44.1667 48.7675 44.1667C50.1141 44.1667 51.2058 45.1554 51.2058 46.375Z" stroke="white" stroke-width="4" stroke-linecap="round" stroke-linejoin="round"/>
</g>
<defs>
<clipPath id="clip0_7_17">
<rect width="58.5208" height="53" fill="white"/>
</clipPath>
</defs>
</svg>
