<svg width="20" height="20" viewBox="0 0 20 20" fill="none" xmlns="http://www.w3.org/2000/svg">
<path d="M4.87499 14.25C5.58332 13.7083 6.37499 13.2812 7.24999 12.9687C8.12499 12.6562 9.04166 12.5 9.99999 12.5C10.9583 12.5 11.875 12.6562 12.75 12.9687C13.625 13.2812 14.4167 13.7083 15.125 14.25C15.6111 13.6805 15.9896 13.0347 16.2604 12.3125C16.5312 11.5902 16.6667 10.8194 16.6667 9.99996C16.6667 8.15274 16.0174 6.57982 14.7187 5.28121C13.4201 3.9826 11.8472 3.33329 9.99999 3.33329C8.15277 3.33329 6.57985 3.9826 5.28124 5.28121C3.98263 6.57982 3.33332 8.15274 3.33332 9.99996C3.33332 10.8194 3.46874 11.5902 3.73957 12.3125C4.01041 13.0347 4.38888 13.6805 4.87499 14.25ZM9.99999 10.8333C9.18055 10.8333 8.48957 10.552 7.92707 9.98954C7.36457 9.42704 7.08332 8.73607 7.08332 7.91663C7.08332 7.09718 7.36457 6.40621 7.92707 5.84371C8.48957 5.28121 9.18055 4.99996 9.99999 4.99996C10.8194 4.99996 11.5104 5.28121 12.0729 5.84371C12.6354 6.40621 12.9167 7.09718 12.9167 7.91663C12.9167 8.73607 12.6354 9.42704 12.0729 9.98954C11.5104 10.552 10.8194 10.8333 9.99999 10.8333ZM9.99999 18.3333C8.84721 18.3333 7.76388 18.1145 6.74999 17.677C5.7361 17.2395 4.85416 16.6458 4.10416 15.8958C3.35416 15.1458 2.76041 14.2638 2.32291 13.25C1.88541 12.2361 1.66666 11.1527 1.66666 9.99996C1.66666 8.84718 1.88541 7.76385 2.32291 6.74996C2.76041 5.73607 3.35416 4.85413 4.10416 4.10413C4.85416 3.35413 5.7361 2.76038 6.74999 2.32288C7.76388 1.88538 8.84721 1.66663 9.99999 1.66663C11.1528 1.66663 12.2361 1.88538 13.25 2.32288C14.2639 2.76038 15.1458 3.35413 15.8958 4.10413C16.6458 4.85413 17.2396 5.73607 17.6771 6.74996C18.1146 7.76385 18.3333 8.84718 18.3333 9.99996C18.3333 11.1527 18.1146 12.2361 17.6771 13.25C17.2396 14.2638 16.6458 15.1458 15.8958 15.8958C15.1458 16.6458 14.2639 17.2395 13.25 17.677C12.2361 18.1145 11.1528 18.3333 9.99999 18.3333Z" fill="#FEF7FF"/>
<path d="M4.87499 14.25C5.58332 13.7083 6.37499 13.2812 7.24999 12.9687C8.12499 12.6562 9.04166 12.5 9.99999 12.5C10.9583 12.5 11.875 12.6562 12.75 12.9687C13.625 13.2812 14.4167 13.7083 15.125 14.25C15.6111 13.6805 15.9896 13.0347 16.2604 12.3125C16.5312 11.5902 16.6667 10.8194 16.6667 9.99996C16.6667 8.15274 16.0174 6.57982 14.7187 5.28121C13.4201 3.9826 11.8472 3.33329 9.99999 3.33329C8.15277 3.33329 6.57985 3.9826 5.28124 5.28121C3.98263 6.57982 3.33332 8.15274 3.33332 9.99996C3.33332 10.8194 3.46874 11.5902 3.73957 12.3125C4.01041 13.0347 4.38888 13.6805 4.87499 14.25ZM9.99999 10.8333C9.18055 10.8333 8.48957 10.552 7.92707 9.98954C7.36457 9.42704 7.08332 8.73607 7.08332 7.91663C7.08332 7.09718 7.36457 6.40621 7.92707 5.84371C8.48957 5.28121 9.18055 4.99996 9.99999 4.99996C10.8194 4.99996 11.5104 5.28121 12.0729 5.84371C12.6354 6.40621 12.9167 7.09718 12.9167 7.91663C12.9167 8.73607 12.6354 9.42704 12.0729 9.98954C11.5104 10.552 10.8194 10.8333 9.99999 10.8333ZM9.99999 18.3333C8.84721 18.3333 7.76388 18.1145 6.74999 17.677C5.7361 17.2395 4.85416 16.6458 4.10416 15.8958C3.35416 15.1458 2.76041 14.2638 2.32291 13.25C1.88541 12.2361 1.66666 11.1527 1.66666 9.99996C1.66666 8.84718 1.88541 7.76385 2.32291 6.74996C2.76041 5.73607 3.35416 4.85413 4.10416 4.10413C4.85416 3.35413 5.7361 2.76038 6.74999 2.32288C7.76388 1.88538 8.84721 1.66663 9.99999 1.66663C11.1528 1.66663 12.2361 1.88538 13.25 2.32288C14.2639 2.76038 15.1458 3.35413 15.8958 4.10413C16.6458 4.85413 17.2396 5.73607 17.6771 6.74996C18.1146 7.76385 18.3333 8.84718 18.3333 9.99996C18.3333 11.1527 18.1146 12.2361 17.6771 13.25C17.2396 14.2638 16.6458 15.1458 15.8958 15.8958C15.1458 16.6458 14.2639 17.2395 13.25 17.677C12.2361 18.1145 11.1528 18.3333 9.99999 18.3333Z" fill="#5BF800"/>
</svg>
