<svg width="50" height="42" viewBox="0 0 50 42" fill="none" xmlns="http://www.w3.org/2000/svg">
<path d="M37.921 0C36.0085 0 34.3937 0.70005 33.5266 1.74886H27.5499C27.4147 1.74668 27.2805 1.77522 27.155 1.83283C27.0295 1.89044 26.9153 1.97598 26.819 2.08446C26.7227 2.19294 26.6463 2.32221 26.5941 2.46475C26.5419 2.60729 26.515 2.76026 26.515 2.91477C26.515 3.06928 26.5419 3.22225 26.5941 3.3648C26.6463 3.50734 26.7227 3.6366 26.819 3.74508C26.9153 3.85357 27.0295 3.9391 27.155 3.99671C27.2805 4.05432 27.4147 4.08286 27.5499 4.08068H32.9168C33.3099 5.75478 35.3633 6.99545 37.921 6.99545C39.0495 6.99545 39.7914 6.74715 40.2547 6.21666C40.8312 5.55442 40.8297 4.62102 40.8267 3.71861L40.8247 3.49545L40.8267 3.27456C40.8297 2.37332 40.8322 1.44103 40.2547 0.77879C39.7914 0.247136 39.0524 0 37.927 0H37.921ZM2.04074 4.08068C1.47647 4.08068 1.02037 4.60301 1.02037 5.24659V14.5739C1.02037 15.2174 1.47647 15.7398 2.04074 15.7398H11.24C11.3686 13.8125 12.3485 11.3297 14.2851 11.1012V5.24659C14.2851 4.60301 13.829 4.08068 13.2648 4.08068H2.04074ZM33.9252 8.37769C34.8058 16.0272 33.4916 23.4398 30.4356 27.6243C28.848 29.7964 26.9393 30.8966 24.7618 30.8966C23.7547 30.8966 23.1582 30.1395 22.8347 29.5029C21.9613 27.7832 21.8111 24.41 23.7774 19.8933C22.4611 20.2303 20.8099 20.4034 18.811 20.4034C17.6086 20.4034 14.8446 20.3938 13.0077 19.2785C12.8203 19.1648 12.6449 19.0384 12.4796 18.9005C12.1581 18.6323 11.8771 18.3215 11.6685 17.9486C11.5949 17.9875 11.5295 18.0318 11.4572 18.0716H1.02037C0.456104 18.0716 0 18.5939 0 19.2375C0 19.8822 0.456104 20.4034 1.02037 20.4034H8.30643C5.23488 23.3707 4.18045 26.8356 4.11934 27.08C4.04281 27.3902 4.08104 27.7237 4.22695 28C4.37286 28.2763 4.6111 28.4721 4.8866 28.5397L20.2738 33.2284H31.6912C31.6555 32.867 31.6314 32.4845 31.6314 32.0625C31.6314 25.8517 36.8761 20.4034 42.8554 20.4034C43.0401 20.4034 43.215 20.4146 43.3915 20.4239C43.0262 15.7521 41.0543 11.835 39.2921 9.18608C38.8697 9.27119 38.42 9.32727 37.921 9.32727C36.417 9.32727 35.0507 8.98046 33.9252 8.37769ZM14.5721 13.4079C14.473 13.4079 14.3779 13.4426 14.2851 13.4968L14.2812 13.5013C14.1648 13.5703 14.0565 13.6818 13.9543 13.8178C13.9403 13.8364 13.9262 13.8529 13.9125 13.8725C13.8116 14.0174 13.7186 14.1835 13.6375 14.3735C13.5354 14.6114 13.4568 14.8771 13.3943 15.15C13.3746 15.236 13.3657 15.316 13.3505 15.4027C13.331 15.5136 13.3023 15.623 13.2907 15.7329C13.2993 15.7327 13.3061 15.7266 13.3146 15.7261C13.2989 15.8744 13.2648 16.0272 13.2648 16.1679C13.2648 17.3548 15.1612 18.0716 18.811 18.0716C22.4629 18.0716 25.5092 17.3559 25.5092 16.1679C25.5092 14.9821 24.9243 13.4079 24.1998 13.4079H14.5721ZM42.8554 22.7352C38.2383 22.7352 33.6721 26.9022 33.6721 32.0625C33.6721 35.2571 34.8864 35.5602 35.7129 35.5602C37.4057 35.5602 36.7332 31.5938 40.8147 29.7307C42.0136 29.1839 43.1926 29.0134 44.2843 29.0134C46.1302 29.0134 47.7268 29.5029 48.7604 29.5029C49.541 29.5029 50 29.2231 50 28.2391C49.999 27.3985 48.6756 22.7352 42.8554 22.7352ZM44.0592 31.3543C43.1439 31.3799 42.324 31.5535 41.572 31.8962C41.3802 31.9837 41.2081 32.0773 41.0459 32.1741C40.904 32.4935 40.8147 32.8471 40.8147 33.2284C40.8147 34.5144 41.73 35.5602 42.8554 35.5602C43.9809 35.5602 44.8962 34.5144 44.8962 33.2284C44.8962 32.4577 44.5642 31.7787 44.0592 31.3543ZM6.3195 31.3884C6.19808 31.99 6.1222 32.6046 6.1222 33.2284C6.1222 37.7276 9.32718 41.3897 13.2648 41.3897C16.5014 41.3897 19.2379 38.914 20.1124 35.5352C19.99 35.5247 19.8671 35.5189 19.7477 35.4828L17.123 34.6812C16.5853 36.5385 15.0688 37.892 13.2648 37.892C11.0138 37.892 9.18331 35.8004 9.18331 33.2284C9.18331 32.9054 9.21886 32.5922 9.27498 32.2879L6.3195 31.3884ZM46.6639 31.5888C46.8333 32.1018 46.9369 32.6501 46.9369 33.2284C46.9369 35.8004 45.1064 37.892 42.8554 37.892C41.082 37.892 39.5853 36.5863 39.0231 34.7769C38.9986 34.8328 38.9748 34.8894 38.9513 34.9454C38.5871 35.8023 38.023 37.0961 36.8608 37.6347C38.1454 39.9106 40.3708 41.3897 42.8554 41.3897C46.793 41.3897 49.998 37.7276 49.998 33.2284C49.998 32.6979 49.9373 32.1748 49.8485 31.6594C49.523 31.762 49.1717 31.8348 48.7584 31.8348C48.1697 31.8348 47.5327 31.7304 46.8572 31.6184C46.796 31.6079 46.7261 31.5993 46.6639 31.5888ZM11.2539 32.8936C11.2397 33.0044 11.224 33.1141 11.224 33.2284C11.224 34.5144 12.1393 35.5602 13.2648 35.5602C14.1249 35.5602 14.8591 34.9451 15.158 34.0823L11.2539 32.8936Z" fill="black"/>
</svg>
