<svg width="53" height="53" viewBox="0 0 53 53" fill="none" xmlns="http://www.w3.org/2000/svg">
<path d="M12.9188 37.7625C14.7959 36.3271 16.8938 35.1953 19.2126 34.3672C21.5313 33.5391 23.9605 33.125 26.5001 33.125C29.0397 33.125 31.4688 33.5391 33.7876 34.3672C36.1063 35.1953 38.2042 36.3271 40.0813 37.7625C41.3695 36.2535 42.3725 34.542 43.0902 32.6281C43.8079 30.7142 44.1667 28.6715 44.1667 26.5C44.1667 21.6049 42.4461 17.4366 39.0048 13.9953C35.5634 10.554 31.3952 8.83332 26.5001 8.83332C21.6049 8.83332 17.4367 10.554 13.9954 13.9953C10.5541 17.4366 8.83341 21.6049 8.83341 26.5C8.83341 28.6715 9.19227 30.7142 9.90998 32.6281C10.6277 34.542 11.6306 36.2535 12.9188 37.7625ZM26.5001 28.7083C24.3286 28.7083 22.4975 27.963 21.0069 26.4724C19.5162 24.9818 18.7709 23.1507 18.7709 20.9792C18.7709 18.8076 19.5162 16.9766 21.0069 15.4859C22.4975 13.9953 24.3286 13.25 26.5001 13.25C28.6716 13.25 30.5027 13.9953 31.9933 15.4859C33.4839 16.9766 34.2292 18.8076 34.2292 20.9792C34.2292 23.1507 33.4839 24.9818 31.9933 26.4724C30.5027 27.963 28.6716 28.7083 26.5001 28.7083ZM26.5001 48.5833C23.4452 48.5833 20.5744 48.0036 17.8876 46.8443C15.2008 45.6849 12.8636 44.1115 10.8761 42.1239C8.88862 40.1364 7.31519 37.7993 6.15581 35.1125C4.99644 32.4257 4.41675 29.5548 4.41675 26.5C4.41675 23.4451 4.99644 20.5743 6.15581 17.8875C7.31519 15.2007 8.88862 12.8635 10.8761 10.876C12.8636 8.88853 15.2008 7.31509 17.8876 6.15572C20.5744 4.99634 23.4452 4.41666 26.5001 4.41666C29.5549 4.41666 32.4258 4.99634 35.1126 6.15572C37.7994 7.31509 40.1365 8.88853 42.124 10.876C44.1115 12.8635 45.685 15.2007 46.8443 17.8875C48.0037 20.5743 48.5834 23.4451 48.5834 26.5C48.5834 29.5548 48.0037 32.4257 46.8443 35.1125C45.685 37.7993 44.1115 40.1364 42.124 42.1239C40.1365 44.1115 37.7994 45.6849 35.1126 46.8443C32.4258 48.0036 29.5549 48.5833 26.5001 48.5833Z" fill="#FEF7FF"/>
</svg>
