<svg width="172" height="24" viewBox="0 0 172 24" fill="none" xmlns="http://www.w3.org/2000/svg">
<path d="M19.9169 18.02H13.8369V17.4L15.7169 15.92V4.86L10.3769 18.02H9.27686L3.97686 4.72V16.16L6.07686 17.22L5.67686 18.02H0.99686V17.4L2.87686 15.92V4.2L0.79686 3.08L1.19686 2.28H5.53686L10.5369 14.84L15.5169 2.28H20.1169V2.9L18.2169 4.38V16.48L20.3169 17.22L19.9169 18.02ZM29.3403 18.04C28.807 18.1467 28.167 18.2 27.4203 18.2C26.5403 18.2 25.747 17.9733 25.0403 17.52C24.347 17.0533 23.8003 16.4267 23.4003 15.64C23.0136 14.8533 22.8203 13.9867 22.8203 13.04C22.8203 12.0133 23.1336 11.0533 23.7603 10.16C24.387 9.25333 25.167 8.53333 26.1003 8C27.047 7.45333 27.9603 7.18 28.8403 7.18C30.107 7.18 31.087 7.68 31.7803 8.68C32.487 9.68 32.8403 11 32.8403 12.64H25.4403C25.5203 13.7733 25.827 14.7 26.3603 15.42C26.907 16.14 27.647 16.5 28.5803 16.5C29.447 16.5 30.6803 15.8267 32.2803 14.48L32.8803 15.24L29.3403 18.04ZM27.6803 8.86C26.2403 8.86 25.487 9.84667 25.4203 11.82H30.1003C29.9803 11.1 29.8536 10.5533 29.7203 10.18C29.6003 9.79333 29.3803 9.48 29.0603 9.24C28.7536 8.98667 28.2936 8.86 27.6803 8.86ZM47.5519 18H43.7519V16.56L41.8919 18.04C41.4652 18.1467 40.9519 18.2 40.3519 18.2C39.4719 18.2 38.6785 17.9733 37.9719 17.52C37.2785 17.0533 36.7319 16.4267 36.3319 15.64C35.9452 14.8533 35.7519 13.9867 35.7519 13.04C35.7519 12.0133 36.0652 11.0533 36.6919 10.16C37.3185 9.25333 38.0985 8.53333 39.0319 8C39.9785 7.45333 40.8919 7.18 41.7719 7.18C42.5052 7.18 43.1719 7.38667 43.7719 7.8V3.68L41.9919 2.44V1.82L45.4119 0.539999H46.1719V16.5L47.9519 17.2L47.5519 18ZM41.3719 16.5C41.7719 16.5 42.1519 16.4467 42.5119 16.34C42.8852 16.22 43.2985 16 43.7519 15.68V11.12C43.6719 10.4533 43.3585 9.91333 42.8119 9.5C42.2785 9.07333 41.5452 8.86 40.6119 8.86C39.1052 8.86 38.3519 9.93333 38.3519 12.08C38.3519 13.3333 38.6119 14.3867 39.1319 15.24C39.6519 16.08 40.3985 16.5 41.3719 16.5ZM55.2534 18H49.6734V17.38L51.4534 15.98V10.14L49.6734 8.9V8.28L53.0934 7H53.8534V16.5L55.6534 17.2L55.2534 18ZM52.5734 1C52.9734 1 53.3001 1.14667 53.5534 1.44C53.8201 1.73333 53.9534 2.1 53.9534 2.54C53.9534 2.84667 53.8601 3.14 53.6734 3.42C53.4868 3.68667 53.2534 3.9 52.9734 4.06C52.6934 4.22 52.4201 4.3 52.1534 4.3C51.7534 4.3 51.4201 4.15333 51.1534 3.86C50.9001 3.56667 50.7734 3.2 50.7734 2.76C50.7734 2.45333 50.8668 2.16667 51.0534 1.9C51.2401 1.62 51.4734 1.4 51.7534 1.24C52.0334 1.08 52.3068 1 52.5734 1ZM63.8669 7.18C64.7469 7.18 65.5335 7.41333 66.2269 7.88C66.9335 8.33333 67.4802 8.95333 67.8669 9.74C68.2669 10.5267 68.4669 11.3933 68.4669 12.34C68.4669 13.3667 68.1535 14.3333 67.5269 15.24C66.9002 16.1333 66.1135 16.8533 65.1669 17.4C64.2335 17.9333 63.3269 18.2 62.4469 18.2C61.5669 18.2 60.7735 17.9733 60.0669 17.52C59.3735 17.0533 58.8269 16.4267 58.4269 15.64C58.0402 14.8533 57.8469 13.9867 57.8469 13.04C57.8469 12.0133 58.1602 11.0533 58.7869 10.16C59.4135 9.25333 60.1935 8.53333 61.1269 8C62.0735 7.45333 62.9869 7.18 63.8669 7.18ZM62.7069 8.86C61.2002 8.86 60.4469 9.93333 60.4469 12.08C60.4469 13.3467 60.7202 14.4067 61.2669 15.26C61.8135 16.1 62.5935 16.52 63.6069 16.52C65.1135 16.52 65.8669 15.44 65.8669 13.28C65.8669 12.0267 65.5935 10.98 65.0469 10.14C64.5002 9.28667 63.7202 8.86 62.7069 8.86ZM77.5048 15.84C77.5048 15.4667 77.2982 15.1267 76.8848 14.82C76.4715 14.5 75.8382 14.12 74.9848 13.68C74.2915 13.32 73.7315 13.0067 73.3048 12.74C72.8782 12.4733 72.5115 12.1667 72.2048 11.82C71.9115 11.46 71.7648 11.0733 71.7648 10.66C71.7648 10.18 71.9648 9.66667 72.3648 9.12C72.7648 8.57333 73.2582 8.11333 73.8448 7.74C74.4315 7.36667 74.9782 7.18 75.4848 7.18C76.0982 7.18 76.8048 7.26 77.6048 7.42C78.4182 7.56667 79.0048 7.73333 79.3648 7.92V11H78.6048C78.1782 10.1733 77.6848 9.53333 77.1248 9.08C76.5648 8.61333 75.9915 8.38 75.4048 8.38C74.9915 8.38 74.6582 8.49333 74.4048 8.72C74.1515 8.93333 74.0248 9.20667 74.0248 9.54C74.0248 9.95333 74.2382 10.3267 74.6648 10.66C75.1048 10.98 75.7648 11.36 76.6448 11.8C77.3248 12.1467 77.8715 12.4467 78.2848 12.7C78.6982 12.9533 79.0448 13.2533 79.3248 13.6C79.6182 13.9333 79.7648 14.3067 79.7648 14.72C79.7648 15.2133 79.5515 15.7333 79.1248 16.28C78.7115 16.8133 78.1982 17.2667 77.5848 17.64C76.9848 18.0133 76.4315 18.2 75.9248 18.2C75.2715 18.2 74.4915 18.1267 73.5848 17.98C72.6915 17.82 72.0515 17.6467 71.6648 17.46V14.38H72.4248C72.8915 15.2067 73.4448 15.8533 74.0848 16.32C74.7248 16.7733 75.3715 17 76.0248 17C76.4648 17 76.8182 16.8867 77.0848 16.66C77.3648 16.4333 77.5048 16.16 77.5048 15.84ZM100.103 18H96.3026V16.56L94.4426 18.04C94.016 18.1467 93.5026 18.2 92.9026 18.2C92.0226 18.2 91.2293 17.9733 90.5226 17.52C89.8293 17.0533 89.2826 16.4267 88.8826 15.64C88.496 14.8533 88.3026 13.9867 88.3026 13.04C88.3026 12.0133 88.616 11.0533 89.2426 10.16C89.8693 9.25333 90.6493 8.53333 91.5826 8C92.5293 7.45333 93.4426 7.18 94.3226 7.18C95.056 7.18 95.7226 7.38667 96.3226 7.8V3.68L94.5426 2.44V1.82L97.9626 0.539999H98.7226V16.5L100.503 17.2L100.103 18ZM93.9226 16.5C94.3226 16.5 94.7026 16.4467 95.0626 16.34C95.436 16.22 95.8493 16 96.3026 15.68V11.12C96.2226 10.4533 95.9093 9.91333 95.3626 9.5C94.8293 9.07333 94.096 8.86 93.1626 8.86C91.656 8.86 90.9026 9.93333 90.9026 12.08C90.9026 13.3333 91.1626 14.3867 91.6826 15.24C92.2026 16.08 92.9493 16.5 93.9226 16.5ZM109.044 18.04C108.511 18.1467 107.871 18.2 107.124 18.2C106.244 18.2 105.451 17.9733 104.744 17.52C104.051 17.0533 103.504 16.4267 103.104 15.64C102.718 14.8533 102.524 13.9867 102.524 13.04C102.524 12.0133 102.838 11.0533 103.464 10.16C104.091 9.25333 104.871 8.53333 105.804 8C106.751 7.45333 107.664 7.18 108.544 7.18C109.811 7.18 110.791 7.68 111.484 8.68C112.191 9.68 112.544 11 112.544 12.64H105.144C105.224 13.7733 105.531 14.7 106.064 15.42C106.611 16.14 107.351 16.5 108.284 16.5C109.151 16.5 110.384 15.8267 111.984 14.48L112.584 15.24L109.044 18.04ZM107.384 8.86C105.944 8.86 105.191 9.84667 105.124 11.82H109.804C109.684 11.1 109.558 10.5533 109.424 10.18C109.304 9.79333 109.084 9.48 108.764 9.24C108.458 8.98667 107.998 8.86 107.384 8.86ZM127.042 18.22C126.322 18.22 125.655 18 125.042 17.56V21.44L127.842 22.3L127.442 23.1H120.862V22.48L122.642 21.08V10.34L120.862 9.3V8.68L124.282 7L124.942 9.6L127.802 7.34C128.228 7.23333 128.715 7.18 129.262 7.18C129.982 7.18 130.628 7.41333 131.202 7.88C131.788 8.33333 132.242 8.95333 132.562 9.74C132.895 10.5267 133.062 11.3933 133.062 12.34C133.062 13.3667 132.748 14.3333 132.122 15.24C131.495 16.1333 130.708 16.8533 129.762 17.4C128.828 17.9333 127.922 18.2 127.042 18.2V18.22ZM128.242 9.1C127.735 9.1 127.242 9.2 126.762 9.4C126.282 9.6 125.708 9.99333 125.042 10.58V13.96C125.042 14.6933 125.315 15.3067 125.862 15.8C126.408 16.2933 127.188 16.54 128.202 16.54C129.708 16.54 130.462 15.4667 130.462 13.32C130.462 12.1333 130.268 11.1333 129.882 10.32C129.495 9.50667 128.948 9.1 128.242 9.1ZM146.089 18H142.289V16.26L140.029 18.04C139.762 18.1467 139.429 18.2 139.029 18.2C137.882 18.2 137.049 17.9133 136.529 17.34C136.022 16.7667 135.769 16.08 135.769 15.28C135.769 14.8 135.942 14.3267 136.289 13.86C136.635 13.3933 137.129 12.9533 137.769 12.54H142.289V11.26C142.289 10.3933 142.055 9.78 141.589 9.42C141.135 9.06 140.509 8.88 139.709 8.88C138.882 8.88 137.869 9.38 136.669 10.38L136.069 9.62L138.949 7.34C139.482 7.23333 140.122 7.18 140.869 7.18C142.082 7.18 143.022 7.48 143.689 8.08C144.355 8.66667 144.689 9.52667 144.689 10.66V16.5L146.489 17.2L146.089 18ZM139.669 16.5C140.482 16.5 141.355 16.1267 142.289 15.38V13.36H138.749C138.575 13.5733 138.449 13.7867 138.369 14C138.302 14.2133 138.269 14.4467 138.269 14.7C138.269 15.1933 138.395 15.62 138.649 15.98C138.902 16.3267 139.242 16.5 139.669 16.5ZM156.951 8.76C157.324 9.29333 157.511 9.89333 157.511 10.56C157.511 11.1467 157.344 11.7267 157.011 12.3C156.677 12.86 156.231 13.3533 155.671 13.78C155.111 14.2067 154.497 14.5267 153.831 14.74C153.471 15.1 153.291 15.48 153.291 15.88C153.291 16.1067 153.464 16.32 153.811 16.52C154.171 16.7067 154.697 16.9333 155.391 17.2C156.337 17.5733 157.064 17.9133 157.571 18.22C158.091 18.54 158.351 18.9267 158.351 19.38C158.351 19.78 158.091 20.2933 157.571 20.92C157.064 21.5467 156.431 22.0933 155.671 22.56C154.911 23.0267 154.177 23.26 153.471 23.26C152.724 23.26 151.837 23.1333 150.811 22.88C149.797 22.6267 148.951 22.3733 148.271 22.12V19.04H149.031C149.777 19.96 150.537 20.66 151.311 21.14C152.084 21.62 152.957 21.86 153.931 21.86C154.291 21.86 154.617 21.7867 154.911 21.64C155.217 21.4933 155.451 21.3067 155.611 21.08C155.784 20.8667 155.871 20.66 155.871 20.46C155.871 20.1 155.664 19.7867 155.251 19.52C154.837 19.2667 154.191 18.9533 153.311 18.58C152.471 18.2333 151.844 17.9333 151.431 17.68C151.031 17.4267 150.831 17.1333 150.831 16.8C150.831 16.48 151.044 16.1533 151.471 15.82C151.897 15.4867 152.404 15.1933 152.991 14.94C152.777 14.98 152.557 15 152.331 15C151.624 15 150.977 14.8467 150.391 14.54C149.804 14.22 149.337 13.8 148.991 13.28C148.657 12.76 148.491 12.1933 148.491 11.58C148.491 10.8467 148.744 10.14 149.251 9.46C149.757 8.78 150.411 8.23333 151.211 7.82C152.024 7.39333 152.851 7.18 153.691 7.18C154.624 7.18 155.444 7.44667 156.151 7.98H159.291L159.311 8.76H156.951ZM153.491 13.28C154.091 13.28 154.544 13.1333 154.851 12.84C155.171 12.5333 155.331 12.0867 155.331 11.5C155.331 10.7 155.071 10.0533 154.551 9.56C154.044 9.06667 153.371 8.82 152.531 8.82C151.944 8.82 151.491 8.96667 151.171 9.26C150.864 9.54 150.711 9.97333 150.711 10.56C150.711 11.3733 150.964 12.0333 151.471 12.54C151.991 13.0333 152.664 13.28 153.491 13.28ZM167.013 7.18C167.893 7.18 168.68 7.41333 169.373 7.88C170.08 8.33333 170.626 8.95333 171.013 9.74C171.413 10.5267 171.613 11.3933 171.613 12.34C171.613 13.3667 171.3 14.3333 170.673 15.24C170.046 16.1333 169.26 16.8533 168.313 17.4C167.38 17.9333 166.473 18.2 165.593 18.2C164.713 18.2 163.92 17.9733 163.213 17.52C162.52 17.0533 161.973 16.4267 161.573 15.64C161.186 14.8533 160.993 13.9867 160.993 13.04C160.993 12.0133 161.306 11.0533 161.933 10.16C162.56 9.25333 163.34 8.53333 164.273 8C165.22 7.45333 166.133 7.18 167.013 7.18ZM165.853 8.86C164.346 8.86 163.593 9.93333 163.593 12.08C163.593 13.3467 163.866 14.4067 164.413 15.26C164.96 16.1 165.74 16.52 166.753 16.52C168.26 16.52 169.013 15.44 169.013 13.28C169.013 12.0267 168.74 10.98 168.193 10.14C167.646 9.28667 166.866 8.86 165.853 8.86Z" fill="white"/>
</svg>
