<svg width="100" height="100" viewBox="0 0 100 100" fill="none" xmlns="http://www.w3.org/2000/svg">
<path d="M13.4125 17.8375C13.122 17.5469 12.8915 17.202 12.7342 16.8224C12.577 16.4428 12.4961 16.0359 12.4961 15.625C12.4961 15.2141 12.577 14.8072 12.7342 14.4276C12.8915 14.048 13.122 13.703 13.4125 13.4125C13.7031 13.1219 14.048 12.8915 14.4276 12.7342C14.8072 12.577 15.2141 12.496 15.625 12.496C16.0359 12.496 16.4428 12.577 16.8224 12.7342C17.202 12.8915 17.547 13.1219 17.8375 13.4125L50 45.5812L82.1625 13.4125C82.4531 13.1219 82.798 12.8915 83.1776 12.7342C83.5572 12.577 83.9641 12.496 84.375 12.496C84.7859 12.496 85.1928 12.577 85.5724 12.7342C85.952 12.8915 86.297 13.1219 86.5875 13.4125C86.8781 13.703 87.1085 14.048 87.2658 14.4276C87.423 14.8072 87.504 15.2141 87.504 15.625C87.504 16.0359 87.423 16.4428 87.2658 16.8224C87.1085 17.202 86.8781 17.5469 86.5875 17.8375L54.4188 50L86.5875 82.1625C86.8781 82.453 87.1085 82.798 87.2658 83.1776C87.423 83.5572 87.504 83.9641 87.504 84.375C87.504 84.7859 87.423 85.1928 87.2658 85.5724C87.1085 85.952 86.8781 86.2969 86.5875 86.5875C86.297 86.878 85.952 87.1085 85.5724 87.2658C85.1928 87.423 84.7859 87.5039 84.375 87.5039C83.9641 87.5039 83.5572 87.423 83.1776 87.2658C82.798 87.1085 82.4531 86.878 82.1625 86.5875L50 54.4187L17.8375 86.5875C17.547 86.878 17.202 87.1085 16.8224 87.2658C16.4428 87.423 16.0359 87.5039 15.625 87.5039C15.2141 87.5039 14.8072 87.423 14.4276 87.2658C14.048 87.1085 13.7031 86.878 13.4125 86.5875C13.122 86.2969 12.8915 85.952 12.7342 85.5724C12.577 85.1928 12.4961 84.7859 12.4961 84.375C12.4961 83.9641 12.577 83.5572 12.7342 83.1776C12.8915 82.798 13.122 82.453 13.4125 82.1625L45.5813 50L13.4125 17.8375Z" fill="black"/>
</svg>
