<svg width="24" height="23" viewBox="0 0 24 23" fill="none" xmlns="http://www.w3.org/2000/svg">
<path d="M11.75 0C8.62919 0 8.23675 0.014375 7.01056 0.069C5.78438 0.1265 4.94919 0.319125 4.2175 0.60375C3.45001 0.892427 2.75483 1.34525 2.18056 1.93056C1.59561 2.50513 1.14284 3.20022 0.85375 3.9675C0.569125 4.69775 0.375062 5.53437 0.319 6.75625C0.264375 7.98531 0.25 8.37631 0.25 11.5014C0.25 14.6237 0.264375 15.0147 0.319 16.2409C0.3765 17.4656 0.569125 18.3008 0.85375 19.0325C1.14844 19.7886 1.54088 20.4297 2.18056 21.0694C2.81881 21.7091 3.45994 22.103 4.21606 22.3962C4.94919 22.6809 5.78294 22.8749 7.00769 22.931C8.23531 22.9856 8.62631 23 11.75 23C14.8737 23 15.2633 22.9856 16.4909 22.931C17.7142 22.8735 18.5522 22.6809 19.2839 22.3962C20.0509 22.1074 20.7456 21.6546 21.3194 21.0694C21.9591 20.4297 22.3516 19.7886 22.6462 19.0325C22.9294 18.3008 23.1235 17.4656 23.181 16.2409C23.2356 15.0147 23.25 14.6237 23.25 11.5C23.25 8.37631 23.2356 7.98531 23.181 6.75769C23.1235 5.53438 22.9294 4.69775 22.6462 3.9675C22.3572 3.2002 21.9044 2.5051 21.3194 1.93056C20.7453 1.34503 20.0501 0.892178 19.2825 0.60375C18.5494 0.319125 17.7127 0.125062 16.4894 0.069C15.2618 0.014375 14.8723 0 11.7471 0H11.7514H11.75ZM10.7193 2.07288H11.7514C14.8219 2.07288 15.1856 2.08294 16.3974 2.139C17.5187 2.18931 18.1282 2.37762 18.5336 2.53431C19.0697 2.74275 19.4536 2.99288 19.8561 3.39538C20.2586 3.79787 20.5072 4.18025 20.7157 4.71788C20.8738 5.12181 21.0607 5.73131 21.111 6.85256C21.1671 8.06437 21.1786 8.42806 21.1786 11.4971C21.1786 14.5662 21.1671 14.9313 21.111 16.1431C21.0607 17.2644 20.8724 17.8724 20.7157 18.2778C20.5313 18.7771 20.237 19.2286 19.8546 19.5989C19.4521 20.0014 19.0697 20.2501 18.5321 20.4585C18.1296 20.6166 17.5201 20.8035 16.3974 20.8553C15.1856 20.9099 14.8219 20.9228 11.7514 20.9228C8.68094 20.9228 8.31581 20.9099 7.104 20.8553C5.98275 20.8035 5.37469 20.6166 4.96931 20.4585C4.46978 20.2744 4.01787 19.9806 3.64681 19.5989C3.26408 19.228 2.96935 18.7761 2.78431 18.2764C2.62762 17.8724 2.43931 17.2629 2.389 16.1417C2.33438 14.9299 2.32288 14.5662 2.32288 11.4942C2.32288 8.42375 2.33438 8.0615 2.389 6.84969C2.44075 5.72844 2.62762 5.11894 2.78575 4.71356C2.99419 4.17737 3.24431 3.79356 3.64681 3.39106C4.04931 2.98856 4.43169 2.73988 4.96931 2.53144C5.37469 2.37331 5.98275 2.18644 7.104 2.13469C8.16488 2.08581 8.576 2.07144 10.7193 2.07V2.07288ZM17.8896 3.98187C17.7083 3.98187 17.5289 4.01757 17.3615 4.08692C17.194 4.15627 17.0419 4.25792 16.9138 4.38607C16.7856 4.51421 16.684 4.66634 16.6146 4.83377C16.5453 5.0012 16.5096 5.18065 16.5096 5.36188C16.5096 5.5431 16.5453 5.72255 16.6146 5.88998C16.684 6.05741 16.7856 6.20954 16.9138 6.33768C17.0419 6.46583 17.194 6.56748 17.3615 6.63683C17.5289 6.70618 17.7083 6.74188 17.8896 6.74188C18.2556 6.74188 18.6066 6.59648 18.8654 6.33768C19.1242 6.07888 19.2696 5.72787 19.2696 5.36188C19.2696 4.99588 19.1242 4.64487 18.8654 4.38607C18.6066 4.12727 18.2556 3.98187 17.8896 3.98187ZM11.7514 5.59475C10.9681 5.58253 10.1902 5.72626 9.46291 6.01758C8.73565 6.3089 8.07362 6.74198 7.51534 7.29161C6.95707 7.84124 6.51371 8.49644 6.21108 9.21906C5.90846 9.94168 5.75261 10.7173 5.75261 11.5007C5.75261 12.2842 5.90846 13.0598 6.21108 13.7824C6.51371 14.505 6.95707 15.1602 7.51534 15.7098C8.07362 16.2595 8.73565 16.6925 9.46291 16.9839C10.1902 17.2752 10.9681 17.4189 11.7514 17.4067C13.3018 17.3825 14.7806 16.7496 15.8684 15.6447C16.9563 14.5397 17.566 13.0513 17.566 11.5007C17.566 9.95013 16.9563 8.46172 15.8684 7.35677C14.7806 6.25181 13.3018 5.61894 11.7514 5.59475ZM11.7514 7.66619C12.7682 7.66619 13.7434 8.07011 14.4624 8.78909C15.1813 9.50806 15.5852 10.4832 15.5852 11.5C15.5852 12.5168 15.1813 13.4919 14.4624 14.2109C13.7434 14.9299 12.7682 15.3338 11.7514 15.3338C10.7346 15.3338 9.7595 14.9299 9.04052 14.2109C8.32154 13.4919 7.91762 12.5168 7.91762 11.5C7.91762 10.4832 8.32154 9.50806 9.04052 8.78909C9.7595 8.07011 10.7346 7.66619 11.7514 7.66619Z" fill="white"/>
</svg>
