<svg width="18" height="18" viewBox="0 0 18 18" fill="none" xmlns="http://www.w3.org/2000/svg">
<path d="M3.87499 13.25C4.58332 12.7083 5.37499 12.2812 6.24999 11.9687C7.12499 11.6562 8.04166 11.5 8.99999 11.5C9.95832 11.5 10.875 11.6562 11.75 11.9687C12.625 12.2812 13.4167 12.7083 14.125 13.25C14.6111 12.6805 14.9896 12.0347 15.2604 11.3125C15.5312 10.5902 15.6667 9.8194 15.6667 8.99996C15.6667 7.15274 15.0174 5.57982 13.7187 4.28121C12.4201 2.9826 10.8472 2.33329 8.99999 2.33329C7.15277 2.33329 5.57985 2.9826 4.28124 4.28121C2.98263 5.57982 2.33332 7.15274 2.33332 8.99996C2.33332 9.8194 2.46874 10.5902 2.73957 11.3125C3.01041 12.0347 3.38888 12.6805 3.87499 13.25ZM8.99999 9.83329C8.18055 9.83329 7.48957 9.55204 6.92707 8.98954C6.36457 8.42704 6.08332 7.73607 6.08332 6.91663C6.08332 6.09718 6.36457 5.40621 6.92707 4.84371C7.48957 4.28121 8.18055 3.99996 8.99999 3.99996C9.81943 3.99996 10.5104 4.28121 11.0729 4.84371C11.6354 5.40621 11.9167 6.09718 11.9167 6.91663C11.9167 7.73607 11.6354 8.42704 11.0729 8.98954C10.5104 9.55204 9.81943 9.83329 8.99999 9.83329ZM8.99999 17.3333C7.84721 17.3333 6.76388 17.1145 5.74999 16.677C4.7361 16.2395 3.85416 15.6458 3.10416 14.8958C2.35416 14.1458 1.76041 13.2638 1.32291 12.25C0.885406 11.2361 0.666656 10.1527 0.666656 8.99996C0.666656 7.84718 0.885406 6.76385 1.32291 5.74996C1.76041 4.73607 2.35416 3.85413 3.10416 3.10413C3.85416 2.35413 4.7361 1.76038 5.74999 1.32288C6.76388 0.885376 7.84721 0.666626 8.99999 0.666626C10.1528 0.666626 11.2361 0.885376 12.25 1.32288C13.2639 1.76038 14.1458 2.35413 14.8958 3.10413C15.6458 3.85413 16.2396 4.73607 16.6771 5.74996C17.1146 6.76385 17.3333 7.84718 17.3333 8.99996C17.3333 10.1527 17.1146 11.2361 16.6771 12.25C16.2396 13.2638 15.6458 14.1458 14.8958 14.8958C14.1458 15.6458 13.2639 16.2395 12.25 16.677C11.2361 17.1145 10.1528 17.3333 8.99999 17.3333Z" fill="#FEF7FF"/>
<path d="M3.87499 13.25C4.58332 12.7083 5.37499 12.2812 6.24999 11.9687C7.12499 11.6562 8.04166 11.5 8.99999 11.5C9.95832 11.5 10.875 11.6562 11.75 11.9687C12.625 12.2812 13.4167 12.7083 14.125 13.25C14.6111 12.6805 14.9896 12.0347 15.2604 11.3125C15.5312 10.5902 15.6667 9.8194 15.6667 8.99996C15.6667 7.15274 15.0174 5.57982 13.7187 4.28121C12.4201 2.9826 10.8472 2.33329 8.99999 2.33329C7.15277 2.33329 5.57985 2.9826 4.28124 4.28121C2.98263 5.57982 2.33332 7.15274 2.33332 8.99996C2.33332 9.8194 2.46874 10.5902 2.73957 11.3125C3.01041 12.0347 3.38888 12.6805 3.87499 13.25ZM8.99999 9.83329C8.18055 9.83329 7.48957 9.55204 6.92707 8.98954C6.36457 8.42704 6.08332 7.73607 6.08332 6.91663C6.08332 6.09718 6.36457 5.40621 6.92707 4.84371C7.48957 4.28121 8.18055 3.99996 8.99999 3.99996C9.81943 3.99996 10.5104 4.28121 11.0729 4.84371C11.6354 5.40621 11.9167 6.09718 11.9167 6.91663C11.9167 7.73607 11.6354 8.42704 11.0729 8.98954C10.5104 9.55204 9.81943 9.83329 8.99999 9.83329ZM8.99999 17.3333C7.84721 17.3333 6.76388 17.1145 5.74999 16.677C4.7361 16.2395 3.85416 15.6458 3.10416 14.8958C2.35416 14.1458 1.76041 13.2638 1.32291 12.25C0.885406 11.2361 0.666656 10.1527 0.666656 8.99996C0.666656 7.84718 0.885406 6.76385 1.32291 5.74996C1.76041 4.73607 2.35416 3.85413 3.10416 3.10413C3.85416 2.35413 4.7361 1.76038 5.74999 1.32288C6.76388 0.885376 7.84721 0.666626 8.99999 0.666626C10.1528 0.666626 11.2361 0.885376 12.25 1.32288C13.2639 1.76038 14.1458 2.35413 14.8958 3.10413C15.6458 3.85413 16.2396 4.73607 16.6771 5.74996C17.1146 6.76385 17.3333 7.84718 17.3333 8.99996C17.3333 10.1527 17.1146 11.2361 16.6771 12.25C16.2396 13.2638 15.6458 14.1458 14.8958 14.8958C14.1458 15.6458 13.2639 16.2395 12.25 16.677C11.2361 17.1145 10.1528 17.3333 8.99999 17.3333Z" fill="#FF8A00"/>
</svg>
