<svg width="41" height="47" viewBox="0 0 41 47" fill="none" xmlns="http://www.w3.org/2000/svg">
<path d="M19.7961 0L0 10.891V16.5571H41V10.8609L19.7961 0ZM38.2667 13.4339H2.73333V12.8535L19.8373 3.44372L38.2667 12.8836V13.4339Z" fill="black"/>
<path d="M38.2667 38.4195H2.7334V41.5427H38.2667V38.4195Z" fill="black"/>
<path d="M41 43.8851H0V47.0083H41V43.8851Z" fill="black"/>
<path d="M6.15033 19.6803H3.41699V35.2963H6.15033V19.6803Z" fill="black"/>
<path d="M37.5832 19.6803H34.8499V35.2963H37.5832V19.6803Z" fill="black"/>
<path d="M29.3835 19.6803H26.6501V35.2963H29.3835V19.6803Z" fill="black"/>
<path d="M14.3498 19.6803H11.6165V35.2963H14.3498V19.6803Z" fill="black"/>
<path d="M21.8666 19.6803H19.1333V35.2963H21.8666V19.6803Z" fill="black"/>
</svg>
