<svg width="44" height="45" viewBox="0 0 44 45" fill="none" xmlns="http://www.w3.org/2000/svg">
<path d="M35.9333 39.375L24.3833 27.5625C23.4667 28.3125 22.4125 28.9063 21.2208 29.3438C20.0292 29.7813 18.7611 30 17.4167 30C14.0861 30 11.2674 28.8203 8.96042 26.4609C6.65347 24.1016 5.5 21.2188 5.5 17.8125C5.5 14.4062 6.65347 11.5234 8.96042 9.16406C11.2674 6.80469 14.0861 5.625 17.4167 5.625C20.7472 5.625 23.566 6.80469 25.8729 9.16406C28.1799 11.5234 29.3333 14.4062 29.3333 17.8125C29.3333 19.1875 29.1194 20.4844 28.6917 21.7031C28.2639 22.9219 27.6833 24 26.95 24.9375L38.5 36.75L35.9333 39.375ZM17.4167 26.25C19.7083 26.25 21.6562 25.4297 23.2604 23.7891C24.8646 22.1484 25.6667 20.1562 25.6667 17.8125C25.6667 15.4688 24.8646 13.4766 23.2604 11.8359C21.6562 10.1953 19.7083 9.375 17.4167 9.375C15.125 9.375 13.1771 10.1953 11.5729 11.8359C9.96875 13.4766 9.16667 15.4688 9.16667 17.8125C9.16667 20.1562 9.96875 22.1484 11.5729 23.7891C13.1771 25.4297 15.125 26.25 17.4167 26.25Z" fill="#7D2221"/>
</svg>
