<svg width="20" height="20" viewBox="0 0 20 20" fill="none" xmlns="http://www.w3.org/2000/svg">
<g clip-path="url(#clip0_454_121)">
<path d="M0.833328 0.833374H4.16666L6.39999 11.9917C6.4762 12.3754 6.68492 12.72 6.98962 12.9653C7.29431 13.2106 7.67558 13.3409 8.06666 13.3334H16.1667C16.5577 13.3409 16.939 13.2106 17.2437 12.9653C17.5484 12.72 17.7571 12.3754 17.8333 11.9917L19.1667 5.00004H4.99999M8.33333 17.5C8.33333 17.9603 7.96023 18.3334 7.49999 18.3334C7.03976 18.3334 6.66666 17.9603 6.66666 17.5C6.66666 17.0398 7.03976 16.6667 7.49999 16.6667C7.96023 16.6667 8.33333 17.0398 8.33333 17.5ZM17.5 17.5C17.5 17.9603 17.1269 18.3334 16.6667 18.3334C16.2064 18.3334 15.8333 17.9603 15.8333 17.5C15.8333 17.0398 16.2064 16.6667 16.6667 16.6667C17.1269 16.6667 17.5 17.0398 17.5 17.5Z" stroke="#FF8A00" stroke-width="2" stroke-linecap="round" stroke-linejoin="round"/>
</g>
<defs>
<clipPath id="clip0_454_121">
<rect width="20" height="20" fill="white"/>
</clipPath>
</defs>
</svg>
