<svg width="100" height="18" viewBox="0 0 100 18" fill="none" xmlns="http://www.w3.org/2000/svg">
<path d="M9.36688 0.879999C10.0735 0.879999 10.8869 0.979999 11.8069 1.18C12.7402 1.38 13.4202 1.59333 13.8469 1.82V5.7H13.0869C11.8602 3.60667 10.2335 2.56 8.20688 2.56C7.32688 2.56 6.52022 2.82 5.78688 3.34C5.06688 3.84667 4.50022 4.56 4.08688 5.48C3.67355 6.38667 3.46688 7.40667 3.46688 8.54C3.46688 9.84667 3.66688 11.04 4.06688 12.12C4.48022 13.2 5.10022 14.0667 5.92688 14.72C6.76688 15.3733 7.80022 15.7 9.02688 15.7C10.1602 15.7 11.7869 14.8467 13.9069 13.14L14.5069 14.1L10.8269 16.96C10.3335 17.1333 9.85355 17.2467 9.38688 17.3C8.93355 17.3667 8.44022 17.4 7.90688 17.4C6.50688 17.4 5.26688 17.06 4.18688 16.38C3.10688 15.7 2.26688 14.7667 1.66688 13.58C1.06688 12.38 0.766882 11.02 0.766882 9.5C0.766882 7.94 1.22022 6.5 2.12688 5.18C3.03355 3.84667 4.16022 2.8 5.50688 2.04C6.85355 1.26667 8.14022 0.879999 9.36688 0.879999ZM23.2931 6.18C24.1731 6.18 24.9598 6.41333 25.6531 6.88C26.3598 7.33333 26.9065 7.95333 27.2931 8.74C27.6931 9.52667 27.8931 10.3933 27.8931 11.34C27.8931 12.3667 27.5798 13.3333 26.9531 14.24C26.3265 15.1333 25.5398 15.8533 24.5931 16.4C23.6598 16.9333 22.7531 17.2 21.8731 17.2C20.9931 17.2 20.1998 16.9733 19.4931 16.52C18.7998 16.0533 18.2531 15.4267 17.8531 14.64C17.4665 13.8533 17.2731 12.9867 17.2731 12.04C17.2731 11.0133 17.5865 10.0533 18.2131 9.16C18.8398 8.25333 19.6198 7.53333 20.5531 7C21.4998 6.45333 22.4131 6.18 23.2931 6.18ZM22.1331 7.86C20.6265 7.86 19.8731 8.93333 19.8731 11.08C19.8731 12.3467 20.1465 13.4067 20.6931 14.26C21.2398 15.1 22.0198 15.52 23.0331 15.52C24.5398 15.52 25.2931 14.44 25.2931 12.28C25.2931 11.0267 25.0198 9.98 24.4731 9.14C23.9265 8.28667 23.1465 7.86 22.1331 7.86ZM42.8711 17.02H39.0711V10.28C39.0711 9.54667 38.9578 9.03333 38.7311 8.74C38.5044 8.44667 38.0978 8.3 37.5111 8.3C37.0711 8.3 36.6311 8.38 36.1911 8.54C35.7644 8.7 35.2578 9.00667 34.6711 9.46V15.52L36.4711 16.22L36.0711 17.02H30.4911V16.4L32.2711 15V9.34L30.4911 8.3V7.68L33.9111 6L34.5711 8.6L37.4111 6.34C37.6911 6.23333 38.0578 6.18 38.5111 6.18C39.4178 6.18 40.1378 6.46 40.6711 7.02C41.2044 7.56667 41.4711 8.31333 41.4711 9.26V15.5L43.2711 16.22L42.8711 17.02ZM50.6661 17.04C50.3594 17.1467 49.9861 17.2 49.5461 17.2C48.4394 17.2 47.6261 16.9133 47.1061 16.34C46.5994 15.7533 46.3461 14.8533 46.3461 13.64V7.8H44.1861V6.98L47.9861 2.56H48.7461V6.98H52.3461V7.8H48.7461V13.88C48.7461 14.96 49.2661 15.5 50.3061 15.5C50.5861 15.5 50.8528 15.44 51.1061 15.32C51.3728 15.2 51.6994 14.9867 52.0861 14.68L52.6861 15.44L50.6661 17.04ZM64.6072 17H60.8072V15.26L58.5472 17.04C58.2805 17.1467 57.9472 17.2 57.5472 17.2C56.4005 17.2 55.5672 16.9133 55.0472 16.34C54.5405 15.7667 54.2872 15.08 54.2872 14.28C54.2872 13.8 54.4605 13.3267 54.8072 12.86C55.1539 12.3933 55.6472 11.9533 56.2872 11.54H60.8072V10.26C60.8072 9.39333 60.5739 8.78 60.1072 8.42C59.6539 8.06 59.0272 7.88 58.2272 7.88C57.4005 7.88 56.3872 8.38 55.1872 9.38L54.5872 8.62L57.4672 6.34C58.0005 6.23333 58.6405 6.18 59.3872 6.18C60.6005 6.18 61.5405 6.48 62.2072 7.08C62.8739 7.66667 63.2072 8.52667 63.2072 9.66V15.5L65.0072 16.2L64.6072 17ZM58.1872 15.5C59.0005 15.5 59.8739 15.1267 60.8072 14.38V12.36H57.2672C57.0939 12.5733 56.9672 12.7867 56.8872 13C56.8205 13.2133 56.7872 13.4467 56.7872 13.7C56.7872 14.1933 56.9139 14.62 57.1672 14.98C57.4205 15.3267 57.7605 15.5 58.1872 15.5ZM72.6291 6.18C73.1757 6.18 73.8091 6.26 74.5291 6.42C75.2624 6.56667 75.7891 6.73333 76.1091 6.92V10H75.3491C74.8291 9.33333 74.2291 8.81333 73.5491 8.44C72.8824 8.05333 72.1891 7.86 71.4691 7.86C70.8557 7.86 70.3891 8.13333 70.0691 8.68C69.7624 9.22667 69.6091 10.0267 69.6091 11.08C69.6091 12.3333 69.8824 13.3867 70.4291 14.24C70.9757 15.08 71.7557 15.5 72.7691 15.5C73.5291 15.5 74.6091 14.9533 76.0091 13.86L76.6091 14.62L73.5291 17.04C72.9957 17.1467 72.3557 17.2 71.6091 17.2C70.7291 17.2 69.9357 16.9733 69.2291 16.52C68.5357 16.0533 67.9891 15.4267 67.5891 14.64C67.2024 13.8533 67.0091 12.9867 67.0091 12.04C67.0091 11.0133 67.2957 10.0467 67.8691 9.14C68.4557 8.23333 69.1891 7.51333 70.0691 6.98C70.9491 6.44667 71.8024 6.18 72.6291 6.18ZM84.7747 17.04C84.468 17.1467 84.0947 17.2 83.6547 17.2C82.548 17.2 81.7347 16.9133 81.2147 16.34C80.708 15.7533 80.4547 14.8533 80.4547 13.64V7.8H78.2947V6.98L82.0947 2.56H82.8547V6.98H86.4547V7.8H82.8547V13.88C82.8547 14.96 83.3747 15.5 84.4147 15.5C84.6947 15.5 84.9614 15.44 85.2147 15.32C85.4814 15.2 85.808 14.9867 86.1947 14.68L86.7947 15.44L84.7747 17.04ZM94.4205 6.18C95.3005 6.18 96.0871 6.41333 96.7805 6.88C97.4871 7.33333 98.0338 7.95333 98.4205 8.74C98.8205 9.52667 99.0205 10.3933 99.0205 11.34C99.0205 12.3667 98.7071 13.3333 98.0805 14.24C97.4538 15.1333 96.6671 15.8533 95.7205 16.4C94.7871 16.9333 93.8805 17.2 93.0005 17.2C92.1205 17.2 91.3271 16.9733 90.6205 16.52C89.9271 16.0533 89.3805 15.4267 88.9805 14.64C88.5938 13.8533 88.4005 12.9867 88.4005 12.04C88.4005 11.0133 88.7138 10.0533 89.3405 9.16C89.9671 8.25333 90.7471 7.53333 91.6805 7C92.6271 6.45333 93.5405 6.18 94.4205 6.18ZM93.2605 7.86C91.7538 7.86 91.0005 8.93333 91.0005 11.08C91.0005 12.3467 91.2738 13.4067 91.8205 14.26C92.3671 15.1 93.1471 15.52 94.1605 15.52C95.6671 15.52 96.4205 14.44 96.4205 12.28C96.4205 11.0267 96.1471 9.98 95.6005 9.14C95.0538 8.28667 94.2738 7.86 93.2605 7.86Z" fill="white"/>
</svg>
