<svg width="540" height="18" viewBox="0 0 540 18" fill="none" xmlns="http://www.w3.org/2000/svg">
<path d="M6.67844 1.91C7.20844 1.91 7.81844 1.985 8.50844 2.135C9.20844 2.285 9.71844 2.445 10.0384 2.615V5.525H9.46844C8.54844 3.955 7.32844 3.17 5.80844 3.17C5.14844 3.17 4.54344 3.365 3.99344 3.755C3.45344 4.135 3.02844 4.67 2.71844 5.36C2.40844 6.04 2.25344 6.805 2.25344 7.655C2.25344 8.635 2.40344 9.53 2.70344 10.34C3.01344 11.15 3.47844 11.8 4.09844 12.29C4.72844 12.78 5.50344 13.025 6.42344 13.025C7.27344 13.025 8.49344 12.385 10.0834 11.105L10.5334 11.825L7.77344 13.97C7.40344 14.1 7.04344 14.185 6.69344 14.225C6.35344 14.275 5.98344 14.3 5.58344 14.3C4.53344 14.3 3.60344 14.045 2.79344 13.535C1.98344 13.025 1.35344 12.325 0.903436 11.435C0.453436 10.535 0.228436 9.515 0.228436 8.375C0.228436 7.205 0.568436 6.125 1.24844 5.135C1.92844 4.135 2.77344 3.35 3.78344 2.78C4.79344 2.2 5.75844 1.91 6.67844 1.91ZM17.1481 5.885C17.8081 5.885 18.3981 6.06 18.9181 6.41C19.4481 6.75 19.8581 7.215 20.1481 7.805C20.4481 8.395 20.5981 9.045 20.5981 9.755C20.5981 10.525 20.3631 11.25 19.8931 11.93C19.4231 12.6 18.8331 13.14 18.1231 13.55C17.4231 13.95 16.7431 14.15 16.0831 14.15C15.4231 14.15 14.8281 13.98 14.2981 13.64C13.7781 13.29 13.3681 12.82 13.0681 12.23C12.7781 11.64 12.6331 10.99 12.6331 10.28C12.6331 9.51 12.8681 8.79 13.3381 8.12C13.8081 7.44 14.3931 6.9 15.0931 6.5C15.8031 6.09 16.4881 5.885 17.1481 5.885ZM16.2781 7.145C15.1481 7.145 14.5831 7.95 14.5831 9.56C14.5831 10.51 14.7881 11.305 15.1981 11.945C15.6081 12.575 16.1931 12.89 16.9531 12.89C18.0831 12.89 18.6481 12.08 18.6481 10.46C18.6481 9.52 18.4431 8.735 18.0331 8.105C17.6231 7.465 17.0381 7.145 16.2781 7.145ZM27.2066 14.165C26.6666 14.165 26.1666 14 25.7066 13.67V16.58L27.8066 17.225L27.5066 17.825H22.5716V17.36L23.9066 16.31V8.255L22.5716 7.475V7.01L25.1366 5.75L25.6316 7.7L27.7766 6.005C28.0966 5.925 28.4616 5.885 28.8716 5.885C29.4116 5.885 29.8966 6.06 30.3266 6.41C30.7666 6.75 31.1066 7.215 31.3466 7.805C31.5966 8.395 31.7216 9.045 31.7216 9.755C31.7216 10.525 31.4866 11.25 31.0166 11.93C30.5466 12.6 29.9566 13.14 29.2466 13.55C28.5466 13.95 27.8666 14.15 27.2066 14.15V14.165ZM28.1066 7.325C27.7266 7.325 27.3566 7.4 26.9966 7.55C26.6366 7.7 26.2066 7.995 25.7066 8.435V10.97C25.7066 11.52 25.9116 11.98 26.3216 12.35C26.7316 12.72 27.3166 12.905 28.0766 12.905C29.2066 12.905 29.7716 12.1 29.7716 10.49C29.7716 9.6 29.6266 8.85 29.3366 8.24C29.0466 7.63 28.6366 7.325 28.1066 7.325ZM41.6219 6.5L37.8269 14L34.7069 17.96L34.1369 17.51C34.7069 16.9 35.1369 16.365 35.4269 15.905C35.7269 15.445 35.9369 14.98 36.0569 14.51C36.1769 14.05 36.2369 13.5 36.2369 12.86L34.3469 8.285L32.9519 7.475V7.01L35.5169 5.75L36.0869 8.015L37.9169 12.485L40.0319 8.09L38.0369 6.635L38.3369 6.035H41.6219V6.5ZM48.5186 5.9C48.8486 5.9 49.1386 5.99 49.3886 6.17C49.6386 6.35 49.8336 6.6 49.9736 6.92L48.9836 8.165H48.4136C48.3736 7.915 48.2986 7.74 48.1886 7.64C48.0886 7.53 47.9486 7.475 47.7686 7.475C47.5486 7.475 47.3136 7.535 47.0636 7.655C46.8236 7.765 46.5486 7.98 46.2386 8.3V12.77L48.3386 13.415L48.0386 14.015H43.1036V13.55L44.4386 12.5V8.255L43.1036 7.475V7.01L45.6686 5.75L46.1336 7.595L47.6936 6.005C47.9036 5.925 48.1786 5.885 48.5186 5.885V5.9ZM55.167 14H50.982V13.535L52.317 12.485V8.105L50.982 7.175V6.71L53.547 5.75H54.117V12.875L55.467 13.4L55.167 14ZM53.157 1.25C53.457 1.25 53.702 1.36 53.892 1.58C54.092 1.8 54.192 2.075 54.192 2.405C54.192 2.635 54.122 2.855 53.982 3.065C53.842 3.265 53.667 3.425 53.457 3.545C53.247 3.665 53.042 3.725 52.842 3.725C52.542 3.725 52.292 3.615 52.092 3.395C51.902 3.175 51.807 2.9 51.807 2.57C51.807 2.34 51.877 2.125 52.017 1.925C52.157 1.715 52.332 1.55 52.542 1.43C52.752 1.31 52.957 1.25 53.157 1.25ZM63.482 7.07C63.762 7.47 63.902 7.92 63.902 8.42C63.902 8.86 63.777 9.295 63.527 9.725C63.277 10.145 62.942 10.515 62.522 10.835C62.102 11.155 61.642 11.395 61.142 11.555C60.872 11.825 60.737 12.11 60.737 12.41C60.737 12.58 60.867 12.74 61.127 12.89C61.397 13.03 61.792 13.2 62.312 13.4C63.022 13.68 63.567 13.935 63.947 14.165C64.337 14.405 64.532 14.695 64.532 15.035C64.532 15.335 64.337 15.72 63.947 16.19C63.567 16.66 63.092 17.07 62.522 17.42C61.952 17.77 61.402 17.945 60.872 17.945C60.312 17.945 59.647 17.85 58.877 17.66C58.117 17.47 57.482 17.28 56.972 17.09V14.78H57.542C58.102 15.47 58.672 15.995 59.252 16.355C59.832 16.715 60.487 16.895 61.217 16.895C61.487 16.895 61.732 16.84 61.952 16.73C62.182 16.62 62.357 16.48 62.477 16.31C62.607 16.15 62.672 15.995 62.672 15.845C62.672 15.575 62.517 15.34 62.207 15.14C61.897 14.95 61.412 14.715 60.752 14.435C60.122 14.175 59.652 13.95 59.342 13.76C59.042 13.57 58.892 13.35 58.892 13.1C58.892 12.86 59.052 12.615 59.372 12.365C59.692 12.115 60.072 11.895 60.512 11.705C60.352 11.735 60.187 11.75 60.017 11.75C59.487 11.75 59.002 11.635 58.562 11.405C58.122 11.165 57.772 10.85 57.512 10.46C57.262 10.07 57.137 9.645 57.137 9.185C57.137 8.635 57.327 8.105 57.707 7.595C58.087 7.085 58.577 6.675 59.177 6.365C59.787 6.045 60.407 5.885 61.037 5.885C61.737 5.885 62.352 6.085 62.882 6.485H65.237L65.252 7.07H63.482ZM60.887 10.46C61.337 10.46 61.677 10.35 61.907 10.13C62.147 9.9 62.267 9.565 62.267 9.125C62.267 8.525 62.072 8.04 61.682 7.67C61.302 7.3 60.797 7.115 60.167 7.115C59.727 7.115 59.387 7.225 59.147 7.445C58.917 7.655 58.802 7.98 58.802 8.42C58.802 9.03 58.992 9.525 59.372 9.905C59.762 10.275 60.267 10.46 60.887 10.46ZM75.5918 14H72.7418V8.945C72.7418 8.395 72.6568 8.01 72.4868 7.79C72.3168 7.57 72.0118 7.46 71.5718 7.46C71.2418 7.46 70.9118 7.52 70.5818 7.64C70.2618 7.76 69.8818 7.99 69.4418 8.33V12.875L70.7918 13.4L70.4918 14H66.3068V13.535L67.6418 12.485V3.26L66.3068 2.33V1.865L68.8718 0.905H69.4418V7.625L71.4968 6.005C71.7068 5.925 71.9818 5.885 72.3218 5.885C73.0018 5.885 73.5418 6.095 73.9418 6.515C74.3418 6.925 74.5418 7.485 74.5418 8.195V12.875L75.8918 13.4L75.5918 14ZM81.47 14.03C81.24 14.11 80.96 14.15 80.63 14.15C79.8 14.15 79.19 13.935 78.8 13.505C78.42 13.065 78.23 12.39 78.23 11.48V7.1H76.61V6.485L79.46 3.17H80.03V6.485H82.73V7.1H80.03V11.66C80.03 12.47 80.42 12.875 81.2 12.875C81.41 12.875 81.61 12.83 81.8 12.74C82 12.65 82.245 12.49 82.535 12.26L82.985 12.83L81.47 14.03ZM97.5003 14H88.5003V13.535L89.9103 12.425V3.335L88.3503 2.81L88.6503 2.21H93.2103V2.675L91.7853 3.785V13.325H95.6553L97.8603 10.07L98.3103 10.22V14.27L97.5003 14ZM105.403 14.03C105.003 14.11 104.523 14.15 103.963 14.15C103.303 14.15 102.708 13.98 102.178 13.64C101.658 13.29 101.248 12.82 100.948 12.23C100.658 11.64 100.513 10.99 100.513 10.28C100.513 9.51 100.748 8.79 101.218 8.12C101.688 7.44 102.273 6.9 102.973 6.5C103.683 6.09 104.368 5.885 105.028 5.885C105.978 5.885 106.713 6.26 107.233 7.01C107.763 7.76 108.028 8.75 108.028 9.98H102.478C102.538 10.83 102.768 11.525 103.168 12.065C103.578 12.605 104.133 12.875 104.833 12.875C105.483 12.875 106.408 12.37 107.608 11.36L108.058 11.93L105.403 14.03ZM104.158 7.145C103.078 7.145 102.513 7.885 102.463 9.365H105.973C105.883 8.825 105.788 8.415 105.688 8.135C105.598 7.845 105.433 7.61 105.193 7.43C104.963 7.24 104.618 7.145 104.158 7.145ZM119.312 14.015H116.462V8.96C116.462 8.41 116.377 8.025 116.207 7.805C116.037 7.585 115.732 7.475 115.292 7.475C114.962 7.475 114.632 7.535 114.302 7.655C113.982 7.775 113.602 8.005 113.162 8.345V12.89L114.512 13.415L114.212 14.015H110.027V13.55L111.362 12.5V8.255L110.027 7.475V7.01L112.592 5.75L113.087 7.7L115.217 6.005C115.427 5.925 115.702 5.885 116.042 5.885C116.722 5.885 117.262 6.095 117.662 6.515C118.062 6.925 118.262 7.485 118.262 8.195V12.875L119.612 13.415L119.312 14.015ZM125.648 5.885C126.308 5.885 126.898 6.06 127.418 6.41C127.948 6.75 128.358 7.215 128.648 7.805C128.948 8.395 129.098 9.045 129.098 9.755C129.098 10.525 128.863 11.25 128.393 11.93C127.923 12.6 127.333 13.14 126.623 13.55C125.923 13.95 125.243 14.15 124.583 14.15C123.923 14.15 123.328 13.98 122.798 13.64C122.278 13.29 121.868 12.82 121.568 12.23C121.278 11.64 121.133 10.99 121.133 10.28C121.133 9.51 121.368 8.79 121.838 8.12C122.308 7.44 122.893 6.9 123.593 6.5C124.303 6.09 124.988 5.885 125.648 5.885ZM124.778 7.145C123.648 7.145 123.083 7.95 123.083 9.56C123.083 10.51 123.288 11.305 123.698 11.945C124.108 12.575 124.693 12.89 125.453 12.89C126.583 12.89 127.148 12.08 127.148 10.46C127.148 9.52 126.943 8.735 126.533 8.105C126.123 7.465 125.538 7.145 124.778 7.145ZM135.256 14H131.071V13.535L132.406 12.485V8.105L131.071 7.175V6.71L133.636 5.75H134.206V12.875L135.556 13.4L135.256 14ZM133.246 1.25C133.546 1.25 133.791 1.36 133.981 1.58C134.181 1.8 134.281 2.075 134.281 2.405C134.281 2.635 134.211 2.855 134.071 3.065C133.931 3.265 133.756 3.425 133.546 3.545C133.336 3.665 133.131 3.725 132.931 3.725C132.631 3.725 132.381 3.615 132.181 3.395C131.991 3.175 131.896 2.9 131.896 2.57C131.896 2.34 131.966 2.125 132.106 1.925C132.246 1.715 132.421 1.55 132.631 1.43C132.841 1.31 133.046 1.25 133.246 1.25ZM142.416 5.9C142.746 5.9 143.036 5.99 143.286 6.17C143.536 6.35 143.731 6.6 143.871 6.92L142.881 8.165H142.311C142.271 7.915 142.196 7.74 142.086 7.64C141.986 7.53 141.846 7.475 141.666 7.475C141.446 7.475 141.211 7.535 140.961 7.655C140.721 7.765 140.446 7.98 140.136 8.3V12.77L142.236 13.415L141.936 14.015H137.001V13.55L138.336 12.5V8.255L137.001 7.475V7.01L139.566 5.75L140.031 7.595L141.591 6.005C141.801 5.925 142.076 5.885 142.416 5.885V5.9ZM155.019 5.885C155.559 5.885 156.044 6.06 156.474 6.41C156.914 6.75 157.254 7.215 157.494 7.805C157.744 8.395 157.869 9.045 157.869 9.755C157.869 10.525 157.634 11.25 157.164 11.93C156.694 12.6 156.104 13.14 155.394 13.55C154.694 13.95 154.014 14.15 153.354 14.15C152.944 14.15 152.559 14.06 152.199 13.88C151.849 13.7 151.539 13.445 151.269 13.115L150.624 14H150.054V3.26L148.719 2.33V1.865L151.284 0.905H151.854V7.595L153.864 6.005C154.184 5.925 154.569 5.885 155.019 5.885ZM154.224 12.89C155.354 12.89 155.919 12.085 155.919 10.475C155.919 9.545 155.774 8.76 155.484 8.12C155.194 7.48 154.784 7.16 154.254 7.16C153.874 7.16 153.504 7.235 153.144 7.385C152.784 7.535 152.354 7.83 151.854 8.27V10.955C151.854 11.505 152.059 11.965 152.469 12.335C152.879 12.705 153.464 12.89 154.224 12.89ZM164.96 14.03C164.56 14.11 164.08 14.15 163.52 14.15C162.86 14.15 162.265 13.98 161.735 13.64C161.215 13.29 160.805 12.82 160.505 12.23C160.215 11.64 160.07 10.99 160.07 10.28C160.07 9.51 160.305 8.79 160.775 8.12C161.245 7.44 161.83 6.9 162.53 6.5C163.24 6.09 163.925 5.885 164.585 5.885C165.535 5.885 166.27 6.26 166.79 7.01C167.32 7.76 167.585 8.75 167.585 9.98H162.035C162.095 10.83 162.325 11.525 162.725 12.065C163.135 12.605 163.69 12.875 164.39 12.875C165.04 12.875 165.965 12.37 167.165 11.36L167.615 11.93L164.96 14.03ZM163.715 7.145C162.635 7.145 162.07 7.885 162.02 9.365H165.53C165.44 8.825 165.345 8.415 165.245 8.135C165.155 7.845 164.99 7.61 164.75 7.43C164.52 7.24 164.175 7.145 163.715 7.145ZM175.434 5.885C175.974 5.885 176.459 6.06 176.889 6.41C177.329 6.75 177.669 7.215 177.909 7.805C178.159 8.395 178.284 9.045 178.284 9.755C178.284 10.525 178.049 11.25 177.579 11.93C177.109 12.6 176.519 13.14 175.809 13.55C175.109 13.95 174.429 14.15 173.769 14.15C173.359 14.15 172.974 14.06 172.614 13.88C172.264 13.7 171.954 13.445 171.684 13.115L171.039 14H170.469V3.26L169.134 2.33V1.865L171.699 0.905H172.269V7.595L174.279 6.005C174.599 5.925 174.984 5.885 175.434 5.885ZM174.639 12.89C175.769 12.89 176.334 12.085 176.334 10.475C176.334 9.545 176.189 8.76 175.899 8.12C175.609 7.48 175.199 7.16 174.669 7.16C174.289 7.16 173.919 7.235 173.559 7.385C173.199 7.535 172.769 7.83 172.269 8.27V10.955C172.269 11.505 172.474 11.965 172.884 12.335C173.294 12.705 173.879 12.89 174.639 12.89ZM184.445 14H180.26V13.535L181.595 12.485V8.105L180.26 7.175V6.71L182.825 5.75H183.395V12.875L184.745 13.4L184.445 14ZM182.435 1.25C182.735 1.25 182.98 1.36 183.17 1.58C183.37 1.8 183.47 2.075 183.47 2.405C183.47 2.635 183.4 2.855 183.26 3.065C183.12 3.265 182.945 3.425 182.735 3.545C182.525 3.665 182.32 3.725 182.12 3.725C181.82 3.725 181.57 3.615 181.37 3.395C181.18 3.175 181.085 2.9 181.085 2.57C181.085 2.34 181.155 2.125 181.295 1.925C181.435 1.715 181.61 1.55 181.82 1.43C182.03 1.31 182.235 1.25 182.435 1.25ZM195.25 14H192.4V12.92L191.005 14.03C190.685 14.11 190.3 14.15 189.85 14.15C189.19 14.15 188.595 13.98 188.065 13.64C187.545 13.29 187.135 12.82 186.835 12.23C186.545 11.64 186.4 10.99 186.4 10.28C186.4 9.51 186.635 8.79 187.105 8.12C187.575 7.44 188.16 6.9 188.86 6.5C189.57 6.09 190.255 5.885 190.915 5.885C191.465 5.885 191.965 6.04 192.415 6.35V3.26L191.08 2.33V1.865L193.645 0.905H194.215V12.875L195.55 13.4L195.25 14ZM190.615 12.875C190.915 12.875 191.2 12.835 191.47 12.755C191.75 12.665 192.06 12.5 192.4 12.26V8.84C192.34 8.34 192.105 7.935 191.695 7.625C191.295 7.305 190.745 7.145 190.045 7.145C188.915 7.145 188.35 7.95 188.35 9.56C188.35 10.5 188.545 11.29 188.935 11.93C189.325 12.56 189.885 12.875 190.615 12.875ZM204.682 14H201.832V12.695L200.137 14.03C199.937 14.11 199.687 14.15 199.387 14.15C198.527 14.15 197.902 13.935 197.512 13.505C197.132 13.075 196.942 12.56 196.942 11.96C196.942 11.6 197.072 11.245 197.332 10.895C197.592 10.545 197.962 10.215 198.442 9.905H201.832V8.945C201.832 8.295 201.657 7.835 201.307 7.565C200.967 7.295 200.497 7.16 199.897 7.16C199.277 7.16 198.517 7.535 197.617 8.285L197.167 7.715L199.327 6.005C199.727 5.925 200.207 5.885 200.767 5.885C201.677 5.885 202.382 6.11 202.882 6.56C203.382 7 203.632 7.645 203.632 8.495V12.875L204.982 13.4L204.682 14ZM199.867 12.875C200.477 12.875 201.132 12.595 201.832 12.035V10.52H199.177C199.047 10.68 198.952 10.84 198.892 11C198.842 11.16 198.817 11.335 198.817 11.525C198.817 11.895 198.912 12.215 199.102 12.485C199.292 12.745 199.547 12.875 199.867 12.875ZM211.113 12.38C211.113 12.1 210.958 11.845 210.648 11.615C210.338 11.375 209.863 11.09 209.223 10.76C208.703 10.49 208.283 10.255 207.963 10.055C207.643 9.855 207.368 9.625 207.138 9.365C206.918 9.095 206.808 8.805 206.808 8.495C206.808 8.135 206.958 7.75 207.258 7.34C207.558 6.93 207.928 6.585 208.368 6.305C208.808 6.025 209.218 5.885 209.598 5.885C210.058 5.885 210.588 5.945 211.188 6.065C211.798 6.175 212.238 6.3 212.508 6.44V8.75H211.938C211.618 8.13 211.248 7.65 210.828 7.31C210.408 6.96 209.978 6.785 209.538 6.785C209.228 6.785 208.978 6.87 208.788 7.04C208.598 7.2 208.503 7.405 208.503 7.655C208.503 7.965 208.663 8.245 208.983 8.495C209.313 8.735 209.808 9.02 210.468 9.35C210.978 9.61 211.388 9.835 211.698 10.025C212.008 10.215 212.268 10.44 212.478 10.7C212.698 10.95 212.808 11.23 212.808 11.54C212.808 11.91 212.648 12.3 212.328 12.71C212.018 13.11 211.633 13.45 211.173 13.73C210.723 14.01 210.308 14.15 209.928 14.15C209.438 14.15 208.853 14.095 208.173 13.985C207.503 13.865 207.023 13.735 206.733 13.595V11.285H207.303C207.653 11.905 208.068 12.39 208.548 12.74C209.028 13.08 209.513 13.25 210.003 13.25C210.333 13.25 210.598 13.165 210.798 12.995C211.008 12.825 211.113 12.62 211.113 12.38ZM219.426 9.53L220.026 8.765H224.721V9.215L224.121 9.98H219.426V9.53ZM238.376 14.27L237.551 14H230.966V13.535C232.236 12.475 233.201 11.63 233.861 11C234.531 10.37 234.996 9.855 235.256 9.455C235.516 9.055 235.646 8.685 235.646 8.345C235.646 7.825 235.466 7.4 235.106 7.07C234.746 6.73 234.281 6.56 233.711 6.56C233.091 6.56 232.331 6.935 231.431 7.685L230.981 7.115L233.141 5.405C233.401 5.325 233.731 5.285 234.131 5.285C234.821 5.285 235.426 5.38 235.946 5.57C236.476 5.75 236.881 6.005 237.161 6.335C237.451 6.665 237.596 7.05 237.596 7.49C237.596 8.46 236.311 10.025 233.741 12.185H237.446L237.926 10.97L238.376 11.12V14.27ZM245.419 5.285C246.199 5.285 246.894 5.47 247.504 5.84C248.124 6.21 248.604 6.715 248.944 7.355C249.294 7.985 249.469 8.685 249.469 9.455C249.469 10.285 249.204 11.06 248.674 11.78C248.144 12.5 247.474 13.075 246.664 13.505C245.864 13.935 245.094 14.15 244.354 14.15C243.584 14.15 242.889 13.97 242.269 13.61C241.649 13.24 241.164 12.735 240.814 12.095C240.474 11.455 240.304 10.75 240.304 9.98C240.304 9.15 240.569 8.375 241.099 7.655C241.629 6.935 242.294 6.36 243.094 5.93C243.904 5.5 244.679 5.285 245.419 5.285ZM244.549 6.545C243.019 6.545 242.254 7.45 242.254 9.26C242.254 9.92 242.364 10.525 242.584 11.075C242.804 11.625 243.134 12.065 243.574 12.395C244.024 12.725 244.574 12.89 245.224 12.89C246.754 12.89 247.519 11.98 247.519 10.16C247.519 9.5 247.409 8.895 247.189 8.345C246.969 7.795 246.634 7.36 246.184 7.04C245.744 6.71 245.199 6.545 244.549 6.545ZM258.688 14.27L257.863 14H251.278V13.535C252.548 12.475 253.513 11.63 254.173 11C254.843 10.37 255.308 9.855 255.568 9.455C255.828 9.055 255.958 8.685 255.958 8.345C255.958 7.825 255.778 7.4 255.418 7.07C255.058 6.73 254.593 6.56 254.023 6.56C253.403 6.56 252.643 6.935 251.743 7.685L251.293 7.115L253.453 5.405C253.713 5.325 254.043 5.285 254.443 5.285C255.133 5.285 255.738 5.38 256.258 5.57C256.788 5.75 257.193 6.005 257.473 6.335C257.763 6.665 257.908 7.05 257.908 7.49C257.908 8.46 256.623 10.025 254.053 12.185H257.758L258.238 10.97L258.688 11.12V14.27ZM267.366 13.085V16.325L265.566 17.21V13.085H260.016V12.62L265.566 5.885L267.366 5V12.02H269.661L269.136 13.085H267.366ZM265.566 7.355L261.816 12.02H265.566V7.355ZM272.84 11.675C273.14 11.675 273.385 11.785 273.575 12.005C273.775 12.225 273.875 12.5 273.875 12.83C273.875 13.06 273.805 13.28 273.665 13.49C273.525 13.69 273.35 13.85 273.14 13.97C272.93 14.09 272.725 14.15 272.525 14.15C272.225 14.15 271.975 14.04 271.775 13.82C271.585 13.6 271.49 13.325 271.49 12.995C271.49 12.765 271.56 12.55 271.7 12.35C271.84 12.14 272.015 11.975 272.225 11.855C272.435 11.735 272.64 11.675 272.84 11.675ZM291.042 5.69L290.592 5.84L288.597 2.885H286.767V12.86L288.342 13.4L288.042 14H283.482V13.535L284.892 12.425V2.885H283.107L281.112 5.84L280.662 5.69V1.94L281.472 2.21H290.232L291.042 1.94V5.69ZM296.102 5.885C296.762 5.885 297.352 6.06 297.872 6.41C298.402 6.75 298.812 7.215 299.102 7.805C299.402 8.395 299.552 9.045 299.552 9.755C299.552 10.525 299.317 11.25 298.847 11.93C298.377 12.6 297.787 13.14 297.077 13.55C296.377 13.95 295.697 14.15 295.037 14.15C294.377 14.15 293.782 13.98 293.252 13.64C292.732 13.29 292.322 12.82 292.022 12.23C291.732 11.64 291.587 10.99 291.587 10.28C291.587 9.51 291.822 8.79 292.292 8.12C292.762 7.44 293.347 6.9 294.047 6.5C294.757 6.09 295.442 5.885 296.102 5.885ZM295.232 7.145C294.102 7.145 293.537 7.95 293.537 9.56C293.537 10.51 293.742 11.305 294.152 11.945C294.562 12.575 295.147 12.89 295.907 12.89C297.037 12.89 297.602 12.08 297.602 10.46C297.602 9.52 297.397 8.735 296.987 8.105C296.577 7.465 295.992 7.145 295.232 7.145ZM310.586 14H307.736V12.92L306.341 14.03C306.021 14.11 305.636 14.15 305.186 14.15C304.526 14.15 303.931 13.98 303.401 13.64C302.881 13.29 302.471 12.82 302.171 12.23C301.881 11.64 301.736 10.99 301.736 10.28C301.736 9.51 301.971 8.79 302.441 8.12C302.911 7.44 303.496 6.9 304.196 6.5C304.906 6.09 305.591 5.885 306.251 5.885C306.801 5.885 307.301 6.04 307.751 6.35V3.26L306.416 2.33V1.865L308.981 0.905H309.551V12.875L310.886 13.4L310.586 14ZM305.951 12.875C306.251 12.875 306.536 12.835 306.806 12.755C307.086 12.665 307.396 12.5 307.736 12.26V8.84C307.676 8.34 307.441 7.935 307.031 7.625C306.631 7.305 306.081 7.145 305.381 7.145C304.251 7.145 303.686 7.95 303.686 9.56C303.686 10.5 303.881 11.29 304.271 11.93C304.661 12.56 305.221 12.875 305.951 12.875ZM316.942 5.885C317.602 5.885 318.192 6.06 318.712 6.41C319.242 6.75 319.652 7.215 319.942 7.805C320.242 8.395 320.392 9.045 320.392 9.755C320.392 10.525 320.157 11.25 319.687 11.93C319.217 12.6 318.627 13.14 317.917 13.55C317.217 13.95 316.537 14.15 315.877 14.15C315.217 14.15 314.622 13.98 314.092 13.64C313.572 13.29 313.162 12.82 312.862 12.23C312.572 11.64 312.427 10.99 312.427 10.28C312.427 9.51 312.662 8.79 313.132 8.12C313.602 7.44 314.187 6.9 314.887 6.5C315.597 6.09 316.282 5.885 316.942 5.885ZM316.072 7.145C314.942 7.145 314.377 7.95 314.377 9.56C314.377 10.51 314.582 11.305 314.992 11.945C315.402 12.575 315.987 12.89 316.747 12.89C317.877 12.89 318.442 12.08 318.442 10.46C318.442 9.52 318.237 8.735 317.827 8.105C317.417 7.465 316.832 7.145 316.072 7.145ZM327.196 12.38C327.196 12.1 327.041 11.845 326.731 11.615C326.421 11.375 325.946 11.09 325.306 10.76C324.786 10.49 324.366 10.255 324.046 10.055C323.726 9.855 323.451 9.625 323.221 9.365C323.001 9.095 322.891 8.805 322.891 8.495C322.891 8.135 323.041 7.75 323.341 7.34C323.641 6.93 324.011 6.585 324.451 6.305C324.891 6.025 325.301 5.885 325.681 5.885C326.141 5.885 326.671 5.945 327.271 6.065C327.881 6.175 328.321 6.3 328.591 6.44V8.75H328.021C327.701 8.13 327.331 7.65 326.911 7.31C326.491 6.96 326.061 6.785 325.621 6.785C325.311 6.785 325.061 6.87 324.871 7.04C324.681 7.2 324.586 7.405 324.586 7.655C324.586 7.965 324.746 8.245 325.066 8.495C325.396 8.735 325.891 9.02 326.551 9.35C327.061 9.61 327.471 9.835 327.781 10.025C328.091 10.215 328.351 10.44 328.561 10.7C328.781 10.95 328.891 11.23 328.891 11.54C328.891 11.91 328.731 12.3 328.411 12.71C328.101 13.11 327.716 13.45 327.256 13.73C326.806 14.01 326.391 14.15 326.011 14.15C325.521 14.15 324.936 14.095 324.256 13.985C323.586 13.865 323.106 13.735 322.816 13.595V11.285H323.386C323.736 11.905 324.151 12.39 324.631 12.74C325.111 13.08 325.596 13.25 326.086 13.25C326.416 13.25 326.681 13.165 326.881 12.995C327.091 12.825 327.196 12.62 327.196 12.38ZM339.019 14H334.834V13.535L336.169 12.485V3.26L334.834 2.33V1.865L337.399 0.905H337.969V12.875L339.319 13.4L339.019 14ZM345.511 5.885C346.171 5.885 346.761 6.06 347.281 6.41C347.811 6.75 348.221 7.215 348.511 7.805C348.811 8.395 348.961 9.045 348.961 9.755C348.961 10.525 348.726 11.25 348.256 11.93C347.786 12.6 347.196 13.14 346.486 13.55C345.786 13.95 345.106 14.15 344.446 14.15C343.786 14.15 343.191 13.98 342.661 13.64C342.141 13.29 341.731 12.82 341.431 12.23C341.141 11.64 340.996 10.99 340.996 10.28C340.996 9.51 341.231 8.79 341.701 8.12C342.171 7.44 342.756 6.9 343.456 6.5C344.166 6.09 344.851 5.885 345.511 5.885ZM344.641 7.145C343.511 7.145 342.946 7.95 342.946 9.56C342.946 10.51 343.151 11.305 343.561 11.945C343.971 12.575 344.556 12.89 345.316 12.89C346.446 12.89 347.011 12.08 347.011 10.46C347.011 9.52 346.806 8.735 346.396 8.105C345.986 7.465 345.401 7.145 344.641 7.145ZM355.764 12.38C355.764 12.1 355.609 11.845 355.299 11.615C354.989 11.375 354.514 11.09 353.874 10.76C353.354 10.49 352.934 10.255 352.614 10.055C352.294 9.855 352.019 9.625 351.789 9.365C351.569 9.095 351.459 8.805 351.459 8.495C351.459 8.135 351.609 7.75 351.909 7.34C352.209 6.93 352.579 6.585 353.019 6.305C353.459 6.025 353.869 5.885 354.249 5.885C354.709 5.885 355.239 5.945 355.839 6.065C356.449 6.175 356.889 6.3 357.159 6.44V8.75H356.589C356.269 8.13 355.899 7.65 355.479 7.31C355.059 6.96 354.629 6.785 354.189 6.785C353.879 6.785 353.629 6.87 353.439 7.04C353.249 7.2 353.154 7.405 353.154 7.655C353.154 7.965 353.314 8.245 353.634 8.495C353.964 8.735 354.459 9.02 355.119 9.35C355.629 9.61 356.039 9.835 356.349 10.025C356.659 10.215 356.919 10.44 357.129 10.7C357.349 10.95 357.459 11.23 357.459 11.54C357.459 11.91 357.299 12.3 356.979 12.71C356.669 13.11 356.284 13.45 355.824 13.73C355.374 14.01 354.959 14.15 354.579 14.15C354.089 14.15 353.504 14.095 352.824 13.985C352.154 13.865 351.674 13.735 351.384 13.595V11.285H351.954C352.304 11.905 352.719 12.39 353.199 12.74C353.679 13.08 354.164 13.25 354.654 13.25C354.984 13.25 355.249 13.165 355.449 12.995C355.659 12.825 355.764 12.62 355.764 12.38ZM372.763 14H369.913V12.92L368.518 14.03C368.198 14.11 367.813 14.15 367.363 14.15C366.703 14.15 366.108 13.98 365.578 13.64C365.058 13.29 364.648 12.82 364.348 12.23C364.058 11.64 363.913 10.99 363.913 10.28C363.913 9.51 364.148 8.79 364.618 8.12C365.088 7.44 365.673 6.9 366.373 6.5C367.083 6.09 367.768 5.885 368.428 5.885C368.978 5.885 369.478 6.04 369.928 6.35V3.26L368.593 2.33V1.865L371.158 0.905H371.728V12.875L373.063 13.4L372.763 14ZM368.128 12.875C368.428 12.875 368.713 12.835 368.983 12.755C369.263 12.665 369.573 12.5 369.913 12.26V8.84C369.853 8.34 369.618 7.935 369.208 7.625C368.808 7.305 368.258 7.145 367.558 7.145C366.428 7.145 365.863 7.95 365.863 9.56C365.863 10.5 366.058 11.29 366.448 11.93C366.838 12.56 367.398 12.875 368.128 12.875ZM379.494 14.03C379.094 14.11 378.614 14.15 378.054 14.15C377.394 14.15 376.799 13.98 376.269 13.64C375.749 13.29 375.339 12.82 375.039 12.23C374.749 11.64 374.604 10.99 374.604 10.28C374.604 9.51 374.839 8.79 375.309 8.12C375.779 7.44 376.364 6.9 377.064 6.5C377.774 6.09 378.459 5.885 379.119 5.885C380.069 5.885 380.804 6.26 381.324 7.01C381.854 7.76 382.119 8.75 382.119 9.98H376.569C376.629 10.83 376.859 11.525 377.259 12.065C377.669 12.605 378.224 12.875 378.924 12.875C379.574 12.875 380.499 12.37 381.699 11.36L382.149 11.93L379.494 14.03ZM378.249 7.145C377.169 7.145 376.604 7.885 376.554 9.365H380.064C379.974 8.825 379.879 8.415 379.779 8.135C379.689 7.845 379.524 7.61 379.284 7.43C379.054 7.24 378.709 7.145 378.249 7.145ZM389.533 5.9C389.863 5.9 390.153 5.99 390.403 6.17C390.653 6.35 390.848 6.6 390.988 6.92L389.998 8.165H389.428C389.388 7.915 389.313 7.74 389.203 7.64C389.103 7.53 388.963 7.475 388.783 7.475C388.563 7.475 388.328 7.535 388.078 7.655C387.838 7.765 387.563 7.98 387.253 8.3V12.77L389.353 13.415L389.053 14.015H384.118V13.55L385.453 12.5V8.255L384.118 7.475V7.01L386.683 5.75L387.148 7.595L388.708 6.005C388.918 5.925 389.193 5.885 389.533 5.885V5.9ZM397.111 14.03C396.711 14.11 396.231 14.15 395.671 14.15C395.011 14.15 394.416 13.98 393.886 13.64C393.366 13.29 392.956 12.82 392.656 12.23C392.366 11.64 392.221 10.99 392.221 10.28C392.221 9.51 392.456 8.79 392.926 8.12C393.396 7.44 393.981 6.9 394.681 6.5C395.391 6.09 396.076 5.885 396.736 5.885C397.686 5.885 398.421 6.26 398.941 7.01C399.471 7.76 399.736 8.75 399.736 9.98H394.186C394.246 10.83 394.476 11.525 394.876 12.065C395.286 12.605 395.841 12.875 396.541 12.875C397.191 12.875 398.116 12.37 399.316 11.36L399.766 11.93L397.111 14.03ZM395.866 7.145C394.786 7.145 394.221 7.885 394.171 9.365H397.681C397.591 8.825 397.496 8.415 397.396 8.135C397.306 7.845 397.141 7.61 396.901 7.43C396.671 7.24 396.326 7.145 395.866 7.145ZM406.175 5.885C406.585 5.885 407.06 5.945 407.6 6.065C408.15 6.175 408.545 6.3 408.785 6.44V8.75H408.215C407.825 8.25 407.375 7.86 406.865 7.58C406.365 7.29 405.845 7.145 405.305 7.145C404.845 7.145 404.495 7.35 404.255 7.76C404.025 8.17 403.91 8.77 403.91 9.56C403.91 10.5 404.115 11.29 404.525 11.93C404.935 12.56 405.52 12.875 406.28 12.875C406.85 12.875 407.66 12.465 408.71 11.645L409.16 12.215L406.85 14.03C406.45 14.11 405.97 14.15 405.41 14.15C404.75 14.15 404.155 13.98 403.625 13.64C403.105 13.29 402.695 12.82 402.395 12.23C402.105 11.64 401.96 10.99 401.96 10.28C401.96 9.51 402.175 8.785 402.605 8.105C403.045 7.425 403.595 6.885 404.255 6.485C404.915 6.085 405.555 5.885 406.175 5.885ZM420.019 14H417.169V8.945C417.169 8.395 417.084 8.01 416.914 7.79C416.744 7.57 416.439 7.46 415.999 7.46C415.669 7.46 415.339 7.52 415.009 7.64C414.689 7.76 414.309 7.99 413.869 8.33V12.875L415.219 13.4L414.919 14H410.734V13.535L412.069 12.485V3.26L410.734 2.33V1.865L413.299 0.905H413.869V7.625L415.924 6.005C416.134 5.925 416.409 5.885 416.749 5.885C417.429 5.885 417.969 6.095 418.369 6.515C418.769 6.925 418.969 7.485 418.969 8.195V12.875L420.319 13.4L420.019 14ZM426.362 5.885C427.022 5.885 427.612 6.06 428.132 6.41C428.662 6.75 429.072 7.215 429.362 7.805C429.662 8.395 429.812 9.045 429.812 9.755C429.812 10.525 429.577 11.25 429.107 11.93C428.637 12.6 428.047 13.14 427.337 13.55C426.637 13.95 425.957 14.15 425.297 14.15C424.637 14.15 424.042 13.98 423.512 13.64C422.992 13.29 422.582 12.82 422.282 12.23C421.992 11.64 421.847 10.99 421.847 10.28C421.847 9.51 422.082 8.79 422.552 8.12C423.022 7.44 423.607 6.9 424.307 6.5C425.017 6.09 425.702 5.885 426.362 5.885ZM425.492 7.145C424.362 7.145 423.797 7.95 423.797 9.56C423.797 10.51 424.002 11.305 424.412 11.945C424.822 12.575 425.407 12.89 426.167 12.89C427.297 12.89 427.862 12.08 427.862 10.46C427.862 9.52 427.657 8.735 427.247 8.105C426.837 7.465 426.252 7.145 425.492 7.145ZM436.616 12.38C436.616 12.1 436.461 11.845 436.151 11.615C435.841 11.375 435.366 11.09 434.726 10.76C434.206 10.49 433.786 10.255 433.466 10.055C433.146 9.855 432.871 9.625 432.641 9.365C432.421 9.095 432.311 8.805 432.311 8.495C432.311 8.135 432.461 7.75 432.761 7.34C433.061 6.93 433.431 6.585 433.871 6.305C434.311 6.025 434.721 5.885 435.101 5.885C435.561 5.885 436.091 5.945 436.691 6.065C437.301 6.175 437.741 6.3 438.011 6.44V8.75H437.441C437.121 8.13 436.751 7.65 436.331 7.31C435.911 6.96 435.481 6.785 435.041 6.785C434.731 6.785 434.481 6.87 434.291 7.04C434.101 7.2 434.006 7.405 434.006 7.655C434.006 7.965 434.166 8.245 434.486 8.495C434.816 8.735 435.311 9.02 435.971 9.35C436.481 9.61 436.891 9.835 437.201 10.025C437.511 10.215 437.771 10.44 437.981 10.7C438.201 10.95 438.311 11.23 438.311 11.54C438.311 11.91 438.151 12.3 437.831 12.71C437.521 13.11 437.136 13.45 436.676 13.73C436.226 14.01 435.811 14.15 435.431 14.15C434.941 14.15 434.356 14.095 433.676 13.985C433.006 13.865 432.526 13.735 432.236 13.595V11.285H432.806C433.156 11.905 433.571 12.39 434.051 12.74C434.531 13.08 435.016 13.25 435.506 13.25C435.836 13.25 436.101 13.165 436.301 12.995C436.511 12.825 436.616 12.62 436.616 12.38ZM449.969 5.9C450.299 5.9 450.589 5.99 450.839 6.17C451.089 6.35 451.284 6.6 451.424 6.92L450.434 8.165H449.864C449.824 7.915 449.749 7.74 449.639 7.64C449.539 7.53 449.399 7.475 449.219 7.475C448.999 7.475 448.764 7.535 448.514 7.655C448.274 7.765 447.999 7.98 447.689 8.3V12.77L449.789 13.415L449.489 14.015H444.554V13.55L445.889 12.5V8.255L444.554 7.475V7.01L447.119 5.75L447.584 7.595L449.144 6.005C449.354 5.925 449.629 5.885 449.969 5.885V5.9ZM457.547 14.03C457.147 14.11 456.667 14.15 456.107 14.15C455.447 14.15 454.852 13.98 454.322 13.64C453.802 13.29 453.392 12.82 453.092 12.23C452.802 11.64 452.657 10.99 452.657 10.28C452.657 9.51 452.892 8.79 453.362 8.12C453.832 7.44 454.417 6.9 455.117 6.5C455.827 6.09 456.512 5.885 457.172 5.885C458.122 5.885 458.857 6.26 459.377 7.01C459.907 7.76 460.172 8.75 460.172 9.98H454.622C454.682 10.83 454.912 11.525 455.312 12.065C455.722 12.605 456.277 12.875 456.977 12.875C457.627 12.875 458.552 12.37 459.752 11.36L460.202 11.93L457.547 14.03ZM456.302 7.145C455.222 7.145 454.657 7.885 454.607 9.365H458.117C458.027 8.825 457.932 8.415 457.832 8.135C457.742 7.845 457.577 7.61 457.337 7.43C457.107 7.24 456.762 7.145 456.302 7.145ZM467.001 12.38C467.001 12.1 466.846 11.845 466.536 11.615C466.226 11.375 465.751 11.09 465.111 10.76C464.591 10.49 464.171 10.255 463.851 10.055C463.531 9.855 463.256 9.625 463.026 9.365C462.806 9.095 462.696 8.805 462.696 8.495C462.696 8.135 462.846 7.75 463.146 7.34C463.446 6.93 463.816 6.585 464.256 6.305C464.696 6.025 465.106 5.885 465.486 5.885C465.946 5.885 466.476 5.945 467.076 6.065C467.686 6.175 468.126 6.3 468.396 6.44V8.75H467.826C467.506 8.13 467.136 7.65 466.716 7.31C466.296 6.96 465.866 6.785 465.426 6.785C465.116 6.785 464.866 6.87 464.676 7.04C464.486 7.2 464.391 7.405 464.391 7.655C464.391 7.965 464.551 8.245 464.871 8.495C465.201 8.735 465.696 9.02 466.356 9.35C466.866 9.61 467.276 9.835 467.586 10.025C467.896 10.215 468.156 10.44 468.366 10.7C468.586 10.95 468.696 11.23 468.696 11.54C468.696 11.91 468.536 12.3 468.216 12.71C467.906 13.11 467.521 13.45 467.061 13.73C466.611 14.01 466.196 14.15 465.816 14.15C465.326 14.15 464.741 14.095 464.061 13.985C463.391 13.865 462.911 13.735 462.621 13.595V11.285H463.191C463.541 11.905 463.956 12.39 464.436 12.74C464.916 13.08 465.401 13.25 465.891 13.25C466.221 13.25 466.486 13.165 466.686 12.995C466.896 12.825 467.001 12.62 467.001 12.38ZM475.765 14.03C475.365 14.11 474.885 14.15 474.325 14.15C473.665 14.15 473.07 13.98 472.54 13.64C472.02 13.29 471.61 12.82 471.31 12.23C471.02 11.64 470.875 10.99 470.875 10.28C470.875 9.51 471.11 8.79 471.58 8.12C472.05 7.44 472.635 6.9 473.335 6.5C474.045 6.09 474.73 5.885 475.39 5.885C476.34 5.885 477.075 6.26 477.595 7.01C478.125 7.76 478.39 8.75 478.39 9.98H472.84C472.9 10.83 473.13 11.525 473.53 12.065C473.94 12.605 474.495 12.875 475.195 12.875C475.845 12.875 476.77 12.37 477.97 11.36L478.42 11.93L475.765 14.03ZM474.52 7.145C473.44 7.145 472.875 7.885 472.825 9.365H476.335C476.245 8.825 476.15 8.415 476.05 8.135C475.96 7.845 475.795 7.61 475.555 7.43C475.325 7.24 474.98 7.145 474.52 7.145ZM485.804 5.9C486.134 5.9 486.424 5.99 486.674 6.17C486.924 6.35 487.119 6.6 487.259 6.92L486.269 8.165H485.699C485.659 7.915 485.584 7.74 485.474 7.64C485.374 7.53 485.234 7.475 485.054 7.475C484.834 7.475 484.599 7.535 484.349 7.655C484.109 7.765 483.834 7.98 483.524 8.3V12.77L485.624 13.415L485.324 14.015H480.389V13.55L481.724 12.5V8.255L480.389 7.475V7.01L482.954 5.75L483.419 7.595L484.979 6.005C485.189 5.925 485.464 5.885 485.804 5.885V5.9ZM496.187 6.5L492.392 14H491.252L488.912 8.285L487.517 7.475V7.01L490.082 5.75L490.652 8.015L492.482 12.485L494.597 8.09L492.602 6.635L492.902 6.035H496.187V6.5ZM505.191 14H502.341V12.695L500.646 14.03C500.446 14.11 500.196 14.15 499.896 14.15C499.036 14.15 498.411 13.935 498.021 13.505C497.641 13.075 497.451 12.56 497.451 11.96C497.451 11.6 497.581 11.245 497.841 10.895C498.101 10.545 498.471 10.215 498.951 9.905H502.341V8.945C502.341 8.295 502.166 7.835 501.816 7.565C501.476 7.295 501.006 7.16 500.406 7.16C499.786 7.16 499.026 7.535 498.126 8.285L497.676 7.715L499.836 6.005C500.236 5.925 500.716 5.885 501.276 5.885C502.186 5.885 502.891 6.11 503.391 6.56C503.891 7 504.141 7.645 504.141 8.495V12.875L505.491 13.4L505.191 14ZM500.376 12.875C500.986 12.875 501.641 12.595 502.341 12.035V10.52H499.686C499.556 10.68 499.461 10.84 499.401 11C499.351 11.16 499.326 11.335 499.326 11.525C499.326 11.895 499.421 12.215 499.611 12.485C499.801 12.745 500.056 12.875 500.376 12.875ZM515.852 14H513.002V12.92L511.607 14.03C511.287 14.11 510.902 14.15 510.452 14.15C509.792 14.15 509.197 13.98 508.667 13.64C508.147 13.29 507.737 12.82 507.437 12.23C507.147 11.64 507.002 10.99 507.002 10.28C507.002 9.51 507.237 8.79 507.707 8.12C508.177 7.44 508.762 6.9 509.462 6.5C510.172 6.09 510.857 5.885 511.517 5.885C512.067 5.885 512.567 6.04 513.017 6.35V3.26L511.682 2.33V1.865L514.247 0.905H514.817V12.875L516.152 13.4L515.852 14ZM511.217 12.875C511.517 12.875 511.802 12.835 512.072 12.755C512.352 12.665 512.662 12.5 513.002 12.26V8.84C512.942 8.34 512.707 7.935 512.297 7.625C511.897 7.305 511.347 7.145 510.647 7.145C509.517 7.145 508.952 7.95 508.952 9.56C508.952 10.5 509.147 11.29 509.537 11.93C509.927 12.56 510.487 12.875 511.217 12.875ZM522.208 5.885C522.868 5.885 523.458 6.06 523.978 6.41C524.508 6.75 524.918 7.215 525.208 7.805C525.508 8.395 525.658 9.045 525.658 9.755C525.658 10.525 525.423 11.25 524.953 11.93C524.483 12.6 523.893 13.14 523.183 13.55C522.483 13.95 521.803 14.15 521.143 14.15C520.483 14.15 519.888 13.98 519.358 13.64C518.838 13.29 518.428 12.82 518.128 12.23C517.838 11.64 517.693 10.99 517.693 10.28C517.693 9.51 517.928 8.79 518.398 8.12C518.868 7.44 519.453 6.9 520.153 6.5C520.863 6.09 521.548 5.885 522.208 5.885ZM521.338 7.145C520.208 7.145 519.643 7.95 519.643 9.56C519.643 10.51 519.848 11.305 520.258 11.945C520.668 12.575 521.253 12.89 522.013 12.89C523.143 12.89 523.708 12.08 523.708 10.46C523.708 9.52 523.503 8.735 523.093 8.105C522.683 7.465 522.098 7.145 521.338 7.145ZM532.462 12.38C532.462 12.1 532.307 11.845 531.997 11.615C531.687 11.375 531.212 11.09 530.572 10.76C530.052 10.49 529.632 10.255 529.312 10.055C528.992 9.855 528.717 9.625 528.487 9.365C528.267 9.095 528.157 8.805 528.157 8.495C528.157 8.135 528.307 7.75 528.607 7.34C528.907 6.93 529.277 6.585 529.717 6.305C530.157 6.025 530.567 5.885 530.947 5.885C531.407 5.885 531.937 5.945 532.537 6.065C533.147 6.175 533.587 6.3 533.857 6.44V8.75H533.287C532.967 8.13 532.597 7.65 532.177 7.31C531.757 6.96 531.327 6.785 530.887 6.785C530.577 6.785 530.327 6.87 530.137 7.04C529.947 7.2 529.852 7.405 529.852 7.655C529.852 7.965 530.012 8.245 530.332 8.495C530.662 8.735 531.157 9.02 531.817 9.35C532.327 9.61 532.737 9.835 533.047 10.025C533.357 10.215 533.617 10.44 533.827 10.7C534.047 10.95 534.157 11.23 534.157 11.54C534.157 11.91 533.997 12.3 533.677 12.71C533.367 13.11 532.982 13.45 532.522 13.73C532.072 14.01 531.657 14.15 531.277 14.15C530.787 14.15 530.202 14.095 529.522 13.985C528.852 13.865 528.372 13.735 528.082 13.595V11.285H528.652C529.002 11.905 529.417 12.39 529.897 12.74C530.377 13.08 530.862 13.25 531.352 13.25C531.682 13.25 531.947 13.165 532.147 12.995C532.357 12.825 532.462 12.62 532.462 12.38ZM537.986 11.675C538.286 11.675 538.531 11.785 538.721 12.005C538.921 12.225 539.021 12.5 539.021 12.83C539.021 13.06 538.951 13.28 538.811 13.49C538.671 13.69 538.496 13.85 538.286 13.97C538.076 14.09 537.871 14.15 537.671 14.15C537.371 14.15 537.121 14.04 536.921 13.82C536.731 13.6 536.636 13.325 536.636 12.995C536.636 12.765 536.706 12.55 536.846 12.35C536.986 12.14 537.161 11.975 537.371 11.855C537.581 11.735 537.786 11.675 537.986 11.675Z" fill="white"/>
</svg>
