<svg width="43" height="46" viewBox="0 0 43 46" fill="none" xmlns="http://www.w3.org/2000/svg">
<path d="M34.5094 39.875L23.5689 28.0625C22.7006 28.8125 21.7021 29.4063 20.5733 29.8438C19.4445 30.2813 18.2434 30.5 16.9699 30.5C13.8151 30.5 11.1451 29.3203 8.95988 26.9609C6.77467 24.6016 5.68207 21.7188 5.68207 18.3125C5.68207 14.9062 6.77467 12.0234 8.95988 9.66406C11.1451 7.30469 13.8151 6.125 16.9699 6.125C20.1247 6.125 22.7947 7.30469 24.9799 9.66406C27.1651 12.0234 28.2577 14.9062 28.2577 18.3125C28.2577 19.6875 28.0551 20.9844 27.6499 22.2031C27.2447 23.4219 26.6948 24.5 26.0001 25.4375L36.9406 37.25L34.5094 39.875ZM16.9699 26.75C19.1406 26.75 20.9857 25.9297 22.5053 24.2891C24.0248 22.6484 24.7845 20.6562 24.7845 18.3125C24.7845 15.9688 24.0248 13.9766 22.5053 12.3359C20.9857 10.6953 19.1406 9.875 16.9699 9.875C14.7992 9.875 12.954 10.6953 11.4345 12.3359C9.915 13.9766 9.15524 15.9688 9.15524 18.3125C9.15524 20.6562 9.915 22.6484 11.4345 24.2891C12.954 25.9297 14.7992 26.75 16.9699 26.75Z" fill="black"/>
</svg>
