<svg width="1185" height="207" viewBox="0 0 1185 207" fill="none" xmlns="http://www.w3.org/2000/svg">
<path d="M262 100H309.5" stroke="#B5FE8D" stroke-width="9"/>
<path d="M332 100H379.5" stroke="#B5FE8D" stroke-width="9"/>
<path d="M398 100H445.5" stroke="#B5FE8D" stroke-width="9"/>
<path d="M758 100H805.5" stroke="#8E8F8E" stroke-width="9"/>
<path d="M828 100H875.5" stroke="#8E8F8E" stroke-width="9"/>
<path d="M894 100H941.5" stroke="#8E8F8E" stroke-width="9"/>
<path d="M100 0L200 100L100 200L0 100L100 0Z" fill="#00A61E"/>
<path d="M49.3045 107.227C48.2534 107.227 47.3466 106.995 46.5843 106.531C45.8268 106.062 45.242 105.409 44.8301 104.571C44.4229 103.728 44.2193 102.748 44.2193 101.631C44.2193 100.513 44.4229 99.5284 44.8301 98.6761C45.242 97.8191 45.8149 97.1515 46.5488 96.6733C47.2875 96.1903 48.1492 95.9489 49.134 95.9489C49.7022 95.9489 50.2633 96.0436 50.8173 96.233C51.3713 96.4223 51.8755 96.7301 52.3301 97.1562C52.7846 97.5777 53.1468 98.1364 53.4167 98.8324C53.6866 99.5284 53.8215 100.385 53.8215 101.403V102.114H45.4125V100.665H52.117C52.117 100.049 51.9939 99.5 51.7477 99.017C51.5062 98.5341 51.1606 98.1529 50.7107 97.8736C50.2657 97.5942 49.7401 97.4545 49.134 97.4545C48.4664 97.4545 47.8888 97.6203 47.4011 97.9517C46.9181 98.2784 46.5465 98.7045 46.286 99.2301C46.0256 99.7557 45.8954 100.319 45.8954 100.92V101.886C45.8954 102.71 46.0375 103.409 46.3215 103.982C46.6104 104.55 47.0105 104.983 47.5218 105.281C48.0332 105.575 48.6274 105.722 49.3045 105.722C49.7448 105.722 50.1426 105.66 50.4977 105.537C50.8575 105.409 51.1677 105.22 51.4281 104.969C51.6885 104.713 51.8897 104.396 52.0318 104.017L53.6511 104.472C53.4806 105.021 53.1942 105.504 52.7917 105.92C52.3893 106.332 51.8921 106.654 51.3002 106.886C50.7084 107.114 50.0431 107.227 49.3045 107.227ZM58.1474 100.438V107H56.4713V96.0909H58.0906V97.7955H58.2326C58.4883 97.2415 58.8766 96.7964 59.3974 96.4602C59.9182 96.1193 60.5906 95.9489 61.4144 95.9489C62.1531 95.9489 62.7994 96.1004 63.3534 96.4034C63.9073 96.7017 64.3382 97.1562 64.646 97.767C64.9537 98.3731 65.1076 99.1402 65.1076 100.068V107H63.4315V100.182C63.4315 99.3248 63.209 98.6572 62.7639 98.179C62.3188 97.696 61.708 97.4545 60.9315 97.4545C60.3965 97.4545 59.9182 97.5705 59.4968 97.8026C59.0802 98.0346 58.7511 98.3731 58.5096 98.8182C58.2681 99.2633 58.1474 99.803 58.1474 100.438ZM73.9955 111.091V96.0909H75.6148V97.8239H75.8137C75.9368 97.6345 76.1072 97.393 76.325 97.0994C76.5476 96.8011 76.8648 96.536 77.2767 96.304C77.6934 96.0672 78.2568 95.9489 78.9671 95.9489C79.8856 95.9489 80.6953 96.1785 81.396 96.6378C82.0968 97.0971 82.6437 97.7481 83.0367 98.5909C83.4297 99.4337 83.6262 100.428 83.6262 101.574C83.6262 102.729 83.4297 103.731 83.0367 104.578C82.6437 105.421 82.0992 106.074 81.4031 106.538C80.7071 106.998 79.9046 107.227 78.9955 107.227C78.2947 107.227 77.7336 107.111 77.3122 106.879C76.8908 106.643 76.5665 106.375 76.3392 106.077C76.112 105.774 75.9368 105.523 75.8137 105.324H75.6716V111.091H73.9955ZM75.6432 101.545C75.6432 102.369 75.7639 103.096 76.0054 103.726C76.2469 104.351 76.5996 104.841 77.0637 105.196C77.5277 105.546 78.0959 105.722 78.7682 105.722C79.469 105.722 80.0537 105.537 80.5225 105.168C80.996 104.794 81.3511 104.292 81.5878 103.662C81.8293 103.027 81.95 102.322 81.95 101.545C81.95 100.778 81.8317 100.087 81.5949 99.4716C81.3629 98.8513 81.0102 98.3613 80.5367 98.0014C80.0679 97.6368 79.4784 97.4545 78.7682 97.4545C78.0864 97.4545 77.5135 97.6274 77.0495 97.973C76.5854 98.3139 76.2351 98.7921 75.9983 99.4077C75.7616 100.018 75.6432 100.731 75.6432 101.545ZM86.283 107V96.0909H87.9023V97.7386H88.0159C88.2148 97.1989 88.5746 96.7609 89.0955 96.4247C89.6163 96.0885 90.2034 95.9205 90.8568 95.9205C90.98 95.9205 91.1338 95.9228 91.3185 95.9276C91.5032 95.9323 91.6428 95.9394 91.7375 95.9489V97.6534C91.6807 97.6392 91.5505 97.6179 91.3469 97.5895C91.148 97.5563 90.9373 97.5398 90.7148 97.5398C90.1845 97.5398 89.711 97.651 89.2943 97.8736C88.8824 98.0914 88.5557 98.3944 88.3142 98.7827C88.0775 99.1662 87.9591 99.6042 87.9591 100.097V107H86.283ZM97.9242 107.227C96.9393 107.227 96.0752 106.993 95.3318 106.524C94.5932 106.055 94.0156 105.4 93.5989 104.557C93.187 103.714 92.981 102.729 92.981 101.602C92.981 100.466 93.187 99.474 93.5989 98.6264C94.0156 97.7789 94.5932 97.1207 95.3318 96.652C96.0752 96.1832 96.9393 95.9489 97.9242 95.9489C98.909 95.9489 99.7708 96.1832 100.509 96.652C101.253 97.1207 101.83 97.7789 102.242 98.6264C102.659 99.474 102.867 100.466 102.867 101.602C102.867 102.729 102.659 103.714 102.242 104.557C101.83 105.4 101.253 106.055 100.509 106.524C99.7708 106.993 98.909 107.227 97.9242 107.227ZM97.9242 105.722C98.6723 105.722 99.2878 105.53 99.7708 105.146C100.254 104.763 100.611 104.259 100.843 103.634C101.075 103.009 101.191 102.331 101.191 101.602C101.191 100.873 101.075 100.194 100.843 99.5639C100.611 98.9342 100.254 98.4252 99.7708 98.0369C99.2878 97.6487 98.6723 97.4545 97.9242 97.4545C97.1761 97.4545 96.5605 97.6487 96.0776 98.0369C95.5946 98.4252 95.2371 98.9342 95.0051 99.5639C94.7731 100.194 94.6571 100.873 94.6571 101.602C94.6571 102.331 94.7731 103.009 95.0051 103.634C95.2371 104.259 95.5946 104.763 96.0776 105.146C96.5605 105.53 97.1761 105.722 97.9242 105.722ZM109.929 111.318C109.12 111.318 108.424 111.214 107.841 111.006C107.259 110.802 106.774 110.532 106.385 110.196C106.002 109.865 105.696 109.509 105.469 109.131L106.804 108.193C106.956 108.392 107.148 108.619 107.38 108.875C107.612 109.135 107.929 109.36 108.331 109.55C108.739 109.744 109.271 109.841 109.929 109.841C110.81 109.841 111.537 109.628 112.11 109.202C112.683 108.776 112.969 108.108 112.969 107.199V104.983H112.827C112.704 105.182 112.529 105.428 112.302 105.722C112.079 106.01 111.757 106.268 111.336 106.496C110.919 106.718 110.355 106.83 109.645 106.83C108.765 106.83 107.974 106.621 107.273 106.205C106.577 105.788 106.025 105.182 105.618 104.386C105.216 103.591 105.015 102.625 105.015 101.489C105.015 100.371 105.211 99.3982 105.604 98.5696C105.997 97.7363 106.544 97.0923 107.245 96.6378C107.945 96.1785 108.755 95.9489 109.674 95.9489C110.384 95.9489 110.947 96.0672 111.364 96.304C111.785 96.536 112.107 96.8011 112.33 97.0994C112.557 97.393 112.732 97.6345 112.855 97.8239H113.026V96.0909H114.645V107.312C114.645 108.25 114.432 109.012 114.006 109.599C113.585 110.191 113.016 110.625 112.302 110.899C111.591 111.179 110.801 111.318 109.929 111.318ZM109.873 105.324C110.545 105.324 111.113 105.17 111.577 104.862C112.041 104.554 112.394 104.112 112.635 103.534C112.877 102.956 112.998 102.265 112.998 101.46C112.998 100.674 112.879 99.9806 112.642 99.3793C112.406 98.7779 112.055 98.3068 111.591 97.9659C111.127 97.625 110.554 97.4545 109.873 97.4545C109.162 97.4545 108.57 97.6345 108.097 97.9943C107.628 98.3542 107.275 98.8371 107.039 99.4432C106.807 100.049 106.691 100.722 106.691 101.46C106.691 102.218 106.809 102.888 107.046 103.47C107.287 104.048 107.642 104.502 108.111 104.834C108.585 105.161 109.172 105.324 109.873 105.324ZM117.813 107V96.0909H119.433V97.7386H119.546C119.745 97.1989 120.105 96.7609 120.626 96.4247C121.147 96.0885 121.734 95.9205 122.387 95.9205C122.51 95.9205 122.664 95.9228 122.849 95.9276C123.034 95.9323 123.173 95.9394 123.268 95.9489V97.6534C123.211 97.6392 123.081 97.6179 122.877 97.5895C122.679 97.5563 122.468 97.5398 122.245 97.5398C121.715 97.5398 121.241 97.651 120.825 97.8736C120.413 98.0914 120.086 98.3944 119.845 98.7827C119.608 99.1662 119.49 99.6042 119.49 100.097V107H117.813ZM129.597 107.227C128.546 107.227 127.639 106.995 126.877 106.531C126.119 106.062 125.534 105.409 125.122 104.571C124.715 103.728 124.511 102.748 124.511 101.631C124.511 100.513 124.715 99.5284 125.122 98.6761C125.534 97.8191 126.107 97.1515 126.841 96.6733C127.58 96.1903 128.441 95.9489 129.426 95.9489C129.994 95.9489 130.556 96.0436 131.109 96.233C131.663 96.4223 132.168 96.7301 132.622 97.1562C133.077 97.5777 133.439 98.1364 133.709 98.8324C133.979 99.5284 134.114 100.385 134.114 101.403V102.114H125.705V100.665H132.409C132.409 100.049 132.286 99.5 132.04 99.017C131.798 98.5341 131.453 98.1529 131.003 97.8736C130.558 97.5942 130.032 97.4545 129.426 97.4545C128.759 97.4545 128.181 97.6203 127.693 97.9517C127.21 98.2784 126.839 98.7045 126.578 99.2301C126.318 99.7557 126.188 100.319 126.188 100.92V101.886C126.188 102.71 126.33 103.409 126.614 103.982C126.903 104.55 127.303 104.983 127.814 105.281C128.325 105.575 128.92 105.722 129.597 105.722C130.037 105.722 130.435 105.66 130.79 105.537C131.15 105.409 131.46 105.22 131.72 104.969C131.981 104.713 132.182 104.396 132.324 104.017L133.943 104.472C133.773 105.021 133.486 105.504 133.084 105.92C132.681 106.332 132.184 106.654 131.592 106.886C131.001 107.114 130.335 107.227 129.597 107.227ZM144.491 98.5341L142.985 98.9602C142.89 98.7093 142.751 98.4654 142.566 98.2287C142.386 97.9872 142.14 97.7884 141.827 97.6321C141.515 97.4759 141.115 97.3977 140.627 97.3977C139.959 97.3977 139.403 97.5516 138.958 97.8594C138.518 98.1624 138.298 98.5483 138.298 99.017C138.298 99.4337 138.449 99.7628 138.752 100.004C139.055 100.246 139.529 100.447 140.173 100.608L141.792 101.006C142.767 101.242 143.494 101.605 143.972 102.092C144.45 102.575 144.69 103.198 144.69 103.96C144.69 104.585 144.51 105.144 144.15 105.636C143.795 106.129 143.298 106.517 142.658 106.801C142.019 107.085 141.276 107.227 140.428 107.227C139.316 107.227 138.395 106.986 137.665 106.503C136.936 106.02 136.475 105.314 136.28 104.386L137.871 103.989C138.023 104.576 138.309 105.016 138.731 105.31C139.157 105.603 139.713 105.75 140.4 105.75C141.181 105.75 141.801 105.584 142.261 105.253C142.725 104.917 142.957 104.514 142.957 104.045C142.957 103.667 142.824 103.349 142.559 103.094C142.294 102.833 141.887 102.639 141.337 102.511L139.519 102.085C138.52 101.848 137.786 101.482 137.317 100.984C136.853 100.482 136.621 99.8551 136.621 99.1023C136.621 98.4867 136.794 97.9422 137.14 97.4688C137.49 96.9953 137.966 96.6236 138.567 96.3537C139.173 96.0838 139.86 95.9489 140.627 95.9489C141.707 95.9489 142.554 96.1856 143.17 96.6591C143.79 97.1326 144.23 97.7576 144.491 98.5341ZM151.744 107.227C150.76 107.227 149.896 106.993 149.152 106.524C148.414 106.055 147.836 105.4 147.419 104.557C147.007 103.714 146.801 102.729 146.801 101.602C146.801 100.466 147.007 99.474 147.419 98.6264C147.836 97.7789 148.414 97.1207 149.152 96.652C149.896 96.1832 150.76 95.9489 151.744 95.9489C152.729 95.9489 153.591 96.1832 154.33 96.652C155.073 97.1207 155.651 97.7789 156.063 98.6264C156.479 99.474 156.688 100.466 156.688 101.602C156.688 102.729 156.479 103.714 156.063 104.557C155.651 105.4 155.073 106.055 154.33 106.524C153.591 106.993 152.729 107.227 151.744 107.227ZM151.744 105.722C152.493 105.722 153.108 105.53 153.591 105.146C154.074 104.763 154.432 104.259 154.664 103.634C154.896 103.009 155.012 102.331 155.012 101.602C155.012 100.873 154.896 100.194 154.664 99.5639C154.432 98.9342 154.074 98.4252 153.591 98.0369C153.108 97.6487 152.493 97.4545 151.744 97.4545C150.996 97.4545 150.381 97.6487 149.898 98.0369C149.415 98.4252 149.057 98.9342 148.825 99.5639C148.593 100.194 148.477 100.873 148.477 101.602C148.477 102.331 148.593 103.009 148.825 103.634C149.057 104.259 149.415 104.763 149.898 105.146C150.381 105.53 150.996 105.722 151.744 105.722Z" fill="black"/>
<path d="M608 7L708 107L608 207L508 107L608 7Z" fill="#00A61E"/>
<path d="M565.578 114.227C564.527 114.227 563.62 113.995 562.858 113.531C562.101 113.062 561.516 112.409 561.104 111.571C560.697 110.728 560.493 109.748 560.493 108.631C560.493 107.513 560.697 106.528 561.104 105.676C561.516 104.819 562.089 104.152 562.823 103.673C563.561 103.19 564.423 102.949 565.408 102.949C565.976 102.949 566.537 103.044 567.091 103.233C567.645 103.422 568.149 103.73 568.604 104.156C569.058 104.578 569.421 105.136 569.691 105.832C569.96 106.528 570.095 107.385 570.095 108.403V109.114H561.686V107.665H568.391C568.391 107.049 568.268 106.5 568.022 106.017C567.78 105.534 567.434 105.153 566.985 104.874C566.54 104.594 566.014 104.455 565.408 104.455C564.74 104.455 564.163 104.62 563.675 104.952C563.192 105.278 562.82 105.705 562.56 106.23C562.299 106.756 562.169 107.319 562.169 107.92V108.886C562.169 109.71 562.311 110.409 562.595 110.982C562.884 111.55 563.284 111.983 563.796 112.281C564.307 112.575 564.901 112.722 565.578 112.722C566.019 112.722 566.416 112.66 566.772 112.537C567.131 112.409 567.441 112.22 567.702 111.969C567.962 111.713 568.164 111.396 568.306 111.017L569.925 111.472C569.754 112.021 569.468 112.504 569.066 112.92C568.663 113.332 568.166 113.654 567.574 113.886C566.982 114.114 566.317 114.227 565.578 114.227ZM574.421 107.438V114H572.745V103.091H574.364V104.795H574.506C574.762 104.241 575.15 103.796 575.671 103.46C576.192 103.119 576.864 102.949 577.688 102.949C578.427 102.949 579.073 103.1 579.627 103.403C580.181 103.702 580.612 104.156 580.92 104.767C581.228 105.373 581.381 106.14 581.381 107.068V114H579.705V107.182C579.705 106.325 579.483 105.657 579.038 105.179C578.593 104.696 577.982 104.455 577.205 104.455C576.67 104.455 576.192 104.571 575.771 104.803C575.354 105.035 575.025 105.373 574.783 105.818C574.542 106.263 574.421 106.803 574.421 107.438ZM594.701 114.227C593.678 114.227 592.798 113.986 592.059 113.503C591.32 113.02 590.752 112.355 590.355 111.507C589.957 110.66 589.758 109.691 589.758 108.602C589.758 107.494 589.962 106.517 590.369 105.669C590.781 104.817 591.354 104.152 592.087 103.673C592.826 103.19 593.688 102.949 594.673 102.949C595.44 102.949 596.131 103.091 596.747 103.375C597.362 103.659 597.866 104.057 598.259 104.568C598.652 105.08 598.896 105.676 598.991 106.358H597.315C597.187 105.861 596.903 105.42 596.462 105.037C596.027 104.649 595.44 104.455 594.701 104.455C594.048 104.455 593.475 104.625 592.982 104.966C592.495 105.302 592.114 105.778 591.839 106.393C591.569 107.004 591.434 107.722 591.434 108.545C591.434 109.388 591.567 110.122 591.832 110.747C592.102 111.372 592.48 111.857 592.968 112.203C593.461 112.549 594.038 112.722 594.701 112.722C595.137 112.722 595.532 112.646 595.887 112.494C596.242 112.343 596.543 112.125 596.789 111.841C597.035 111.557 597.211 111.216 597.315 110.818H598.991C598.896 111.462 598.662 112.042 598.288 112.558C597.918 113.07 597.428 113.477 596.818 113.78C596.212 114.078 595.506 114.227 594.701 114.227ZM604.751 114.256C604.06 114.256 603.433 114.125 602.869 113.865C602.306 113.6 601.858 113.219 601.527 112.722C601.196 112.22 601.03 111.614 601.03 110.903C601.03 110.278 601.153 109.772 601.399 109.384C601.645 108.991 601.974 108.683 602.386 108.46C602.798 108.238 603.253 108.072 603.75 107.963C604.252 107.849 604.756 107.759 605.263 107.693C605.926 107.608 606.463 107.544 606.875 107.501C607.292 107.454 607.595 107.376 607.784 107.267C607.978 107.158 608.075 106.969 608.075 106.699V106.642C608.075 105.941 607.884 105.397 607.5 105.009C607.121 104.62 606.546 104.426 605.774 104.426C604.974 104.426 604.347 104.601 603.892 104.952C603.437 105.302 603.118 105.676 602.933 106.074L601.342 105.506C601.626 104.843 602.005 104.327 602.479 103.957C602.957 103.583 603.478 103.323 604.041 103.176C604.609 103.025 605.168 102.949 605.717 102.949C606.068 102.949 606.47 102.991 606.925 103.077C607.384 103.157 607.827 103.325 608.253 103.581C608.684 103.837 609.041 104.223 609.325 104.739C609.609 105.255 609.751 105.946 609.751 106.812V114H608.075V112.523H607.99C607.876 112.759 607.687 113.013 607.422 113.283C607.157 113.553 606.804 113.782 606.364 113.972C605.923 114.161 605.386 114.256 604.751 114.256ZM605.007 112.75C605.67 112.75 606.229 112.62 606.683 112.359C607.143 112.099 607.488 111.763 607.72 111.351C607.957 110.939 608.075 110.506 608.075 110.051V108.517C608.004 108.602 607.848 108.68 607.607 108.751C607.37 108.818 607.095 108.877 606.783 108.929C606.475 108.976 606.174 109.019 605.881 109.057C605.592 109.09 605.357 109.118 605.178 109.142C604.742 109.199 604.335 109.291 603.956 109.419C603.582 109.542 603.279 109.729 603.047 109.98C602.82 110.226 602.706 110.562 602.706 110.989C602.706 111.571 602.921 112.011 603.352 112.31C603.788 112.603 604.339 112.75 605.007 112.75ZM612.911 114V103.091H614.53V104.795H614.672C614.899 104.213 615.266 103.761 615.773 103.439C616.28 103.112 616.888 102.949 617.598 102.949C618.318 102.949 618.917 103.112 619.395 103.439C619.878 103.761 620.254 104.213 620.524 104.795H620.638C620.917 104.232 621.336 103.785 621.895 103.453C622.454 103.117 623.124 102.949 623.905 102.949C624.88 102.949 625.678 103.254 626.298 103.865C626.919 104.471 627.229 105.416 627.229 106.699V114H625.553V106.699C625.553 105.894 625.333 105.319 624.892 104.973C624.452 104.627 623.933 104.455 623.337 104.455C622.57 104.455 621.976 104.687 621.554 105.151C621.133 105.61 620.922 106.192 620.922 106.898V114H619.218V106.528C619.218 105.908 619.016 105.409 618.614 105.03C618.211 104.646 617.693 104.455 617.058 104.455C616.623 104.455 616.216 104.571 615.837 104.803C615.463 105.035 615.16 105.357 614.928 105.768C614.7 106.176 614.587 106.647 614.587 107.182V114H612.911ZM630.394 114V103.091H632.07V114H630.394ZM631.246 101.273C630.919 101.273 630.637 101.161 630.401 100.939C630.169 100.716 630.053 100.449 630.053 100.136C630.053 99.8239 630.169 99.5563 630.401 99.3338C630.637 99.1113 630.919 99 631.246 99C631.573 99 631.852 99.1113 632.084 99.3338C632.321 99.5563 632.439 99.8239 632.439 100.136C632.439 100.449 632.321 100.716 632.084 100.939C631.852 101.161 631.573 101.273 631.246 101.273ZM636.916 107.438V114H635.24V103.091H636.859V104.795H637.001C637.257 104.241 637.645 103.796 638.166 103.46C638.687 103.119 639.359 102.949 640.183 102.949C640.921 102.949 641.568 103.1 642.122 103.403C642.676 103.702 643.107 104.156 643.414 104.767C643.722 105.373 643.876 106.14 643.876 107.068V114H642.2V107.182C642.2 106.325 641.977 105.657 641.532 105.179C641.087 104.696 640.476 104.455 639.7 104.455C639.165 104.455 638.687 104.571 638.265 104.803C637.849 105.035 637.519 105.373 637.278 105.818C637.036 106.263 636.916 106.803 636.916 107.438ZM651.471 114.227C650.486 114.227 649.622 113.993 648.878 113.524C648.14 113.055 647.562 112.4 647.145 111.557C646.733 110.714 646.527 109.729 646.527 108.602C646.527 107.466 646.733 106.474 647.145 105.626C647.562 104.779 648.14 104.121 648.878 103.652C649.622 103.183 650.486 102.949 651.471 102.949C652.456 102.949 653.317 103.183 654.056 103.652C654.799 104.121 655.377 104.779 655.789 105.626C656.206 106.474 656.414 107.466 656.414 108.602C656.414 109.729 656.206 110.714 655.789 111.557C655.377 112.4 654.799 113.055 654.056 113.524C653.317 113.993 652.456 114.227 651.471 114.227ZM651.471 112.722C652.219 112.722 652.834 112.53 653.317 112.146C653.8 111.763 654.158 111.259 654.39 110.634C654.622 110.009 654.738 109.331 654.738 108.602C654.738 107.873 654.622 107.194 654.39 106.564C654.158 105.934 653.8 105.425 653.317 105.037C652.834 104.649 652.219 104.455 651.471 104.455C650.723 104.455 650.107 104.649 649.624 105.037C649.141 105.425 648.784 105.934 648.552 106.564C648.32 107.194 648.204 107.873 648.204 108.602C648.204 109.331 648.32 110.009 648.552 110.634C648.784 111.259 649.141 111.763 649.624 112.146C650.107 112.53 650.723 112.722 651.471 112.722Z" fill="black"/>
<path d="M1085 7L1185 107L1085 207L985 107L1085 7Z" fill="#A0A8A1"/>
<path d="M1042.58 114.227C1041.53 114.227 1040.62 113.995 1039.86 113.531C1039.1 113.062 1038.52 112.409 1038.1 111.571C1037.7 110.728 1037.49 109.748 1037.49 108.631C1037.49 107.513 1037.7 106.528 1038.1 105.676C1038.52 104.819 1039.09 104.152 1039.82 103.673C1040.56 103.19 1041.42 102.949 1042.41 102.949C1042.98 102.949 1043.54 103.044 1044.09 103.233C1044.65 103.422 1045.15 103.73 1045.6 104.156C1046.06 104.578 1046.42 105.136 1046.69 105.832C1046.96 106.528 1047.1 107.385 1047.1 108.403V109.114H1038.69V107.665H1045.39C1045.39 107.049 1045.27 106.5 1045.02 106.017C1044.78 105.534 1044.43 105.153 1043.98 104.874C1043.54 104.594 1043.01 104.455 1042.41 104.455C1041.74 104.455 1041.16 104.62 1040.67 104.952C1040.19 105.278 1039.82 105.705 1039.56 106.23C1039.3 106.756 1039.17 107.319 1039.17 107.92V108.886C1039.17 109.71 1039.31 110.409 1039.6 110.982C1039.88 111.55 1040.28 111.983 1040.8 112.281C1041.31 112.575 1041.9 112.722 1042.58 112.722C1043.02 112.722 1043.42 112.66 1043.77 112.537C1044.13 112.409 1044.44 112.22 1044.7 111.969C1044.96 111.713 1045.16 111.396 1045.31 111.017L1046.92 111.472C1046.75 112.021 1046.47 112.504 1046.07 112.92C1045.66 113.332 1045.17 113.654 1044.57 113.886C1043.98 114.114 1043.32 114.227 1042.58 114.227ZM1051.42 107.438V114H1049.75V103.091H1051.36V104.795H1051.51C1051.76 104.241 1052.15 103.796 1052.67 103.46C1053.19 103.119 1053.86 102.949 1054.69 102.949C1055.43 102.949 1056.07 103.1 1056.63 103.403C1057.18 103.702 1057.61 104.156 1057.92 104.767C1058.23 105.373 1058.38 106.14 1058.38 107.068V114H1056.71V107.182C1056.71 106.325 1056.48 105.657 1056.04 105.179C1055.59 104.696 1054.98 104.455 1054.21 104.455C1053.67 104.455 1053.19 104.571 1052.77 104.803C1052.35 105.035 1052.02 105.373 1051.78 105.818C1051.54 106.263 1051.42 106.803 1051.42 107.438ZM1066.29 103.091V104.511H1060.64V103.091H1066.29ZM1062.28 100.477H1063.96V110.875C1063.96 111.348 1064.03 111.704 1064.17 111.94C1064.31 112.172 1064.49 112.329 1064.7 112.409C1064.93 112.485 1065.16 112.523 1065.41 112.523C1065.59 112.523 1065.74 112.513 1065.86 112.494C1065.98 112.471 1066.08 112.452 1066.15 112.438L1066.49 113.943C1066.37 113.986 1066.22 114.028 1066.01 114.071C1065.81 114.118 1065.55 114.142 1065.24 114.142C1064.76 114.142 1064.3 114.04 1063.85 113.837C1063.4 113.633 1063.02 113.323 1062.72 112.906C1062.43 112.49 1062.28 111.964 1062.28 111.33V100.477ZM1068.91 114V103.091H1070.53V104.739H1070.64C1070.84 104.199 1071.2 103.761 1071.72 103.425C1072.24 103.089 1072.83 102.92 1073.48 102.92C1073.61 102.92 1073.76 102.923 1073.95 102.928C1074.13 102.932 1074.27 102.939 1074.36 102.949V104.653C1074.31 104.639 1074.18 104.618 1073.97 104.589C1073.77 104.556 1073.56 104.54 1073.34 104.54C1072.81 104.54 1072.34 104.651 1071.92 104.874C1071.51 105.091 1071.18 105.394 1070.94 105.783C1070.7 106.166 1070.59 106.604 1070.59 107.097V114H1068.91ZM1080.69 114.227C1079.64 114.227 1078.74 113.995 1077.97 113.531C1077.22 113.062 1076.63 112.409 1076.22 111.571C1075.81 110.728 1075.61 109.748 1075.61 108.631C1075.61 107.513 1075.81 106.528 1076.22 105.676C1076.63 104.819 1077.2 104.152 1077.94 103.673C1078.68 103.19 1079.54 102.949 1080.52 102.949C1081.09 102.949 1081.65 103.044 1082.21 103.233C1082.76 103.422 1083.26 103.73 1083.72 104.156C1084.17 104.578 1084.54 105.136 1084.81 105.832C1085.08 106.528 1085.21 107.385 1085.21 108.403V109.114H1076.8V107.665H1083.51C1083.51 107.049 1083.38 106.5 1083.14 106.017C1082.89 105.534 1082.55 105.153 1082.1 104.874C1081.65 104.594 1081.13 104.455 1080.52 104.455C1079.86 104.455 1079.28 104.62 1078.79 104.952C1078.31 105.278 1077.94 105.705 1077.67 106.23C1077.41 106.756 1077.28 107.319 1077.28 107.92V108.886C1077.28 109.71 1077.43 110.409 1077.71 110.982C1078 111.55 1078.4 111.983 1078.91 112.281C1079.42 112.575 1080.02 112.722 1080.69 112.722C1081.13 112.722 1081.53 112.66 1081.89 112.537C1082.25 112.409 1082.56 112.22 1082.82 111.969C1083.08 111.713 1083.28 111.396 1083.42 111.017L1085.04 111.472C1084.87 112.021 1084.58 112.504 1084.18 112.92C1083.78 113.332 1083.28 113.654 1082.69 113.886C1082.1 114.114 1081.43 114.227 1080.69 114.227ZM1092.26 118.318C1091.45 118.318 1090.76 118.214 1090.18 118.006C1089.59 117.802 1089.11 117.532 1088.72 117.196C1088.34 116.865 1088.03 116.509 1087.8 116.131L1089.14 115.193C1089.29 115.392 1089.48 115.619 1089.71 115.875C1089.95 116.135 1090.26 116.36 1090.67 116.55C1091.07 116.744 1091.61 116.841 1092.26 116.841C1093.14 116.841 1093.87 116.628 1094.44 116.202C1095.02 115.776 1095.3 115.108 1095.3 114.199V111.983H1095.16C1095.04 112.182 1094.86 112.428 1094.64 112.722C1094.41 113.01 1094.09 113.268 1093.67 113.496C1093.25 113.718 1092.69 113.83 1091.98 113.83C1091.1 113.83 1090.31 113.621 1089.61 113.205C1088.91 112.788 1088.36 112.182 1087.95 111.386C1087.55 110.591 1087.35 109.625 1087.35 108.489C1087.35 107.371 1087.55 106.398 1087.94 105.57C1088.33 104.736 1088.88 104.092 1089.58 103.638C1090.28 103.179 1091.09 102.949 1092.01 102.949C1092.72 102.949 1093.28 103.067 1093.7 103.304C1094.12 103.536 1094.44 103.801 1094.66 104.099C1094.89 104.393 1095.07 104.634 1095.19 104.824H1095.36V103.091H1096.98V114.312C1096.98 115.25 1096.77 116.012 1096.34 116.599C1095.92 117.191 1095.35 117.625 1094.64 117.899C1093.93 118.179 1093.13 118.318 1092.26 118.318ZM1092.21 112.324C1092.88 112.324 1093.45 112.17 1093.91 111.862C1094.38 111.554 1094.73 111.112 1094.97 110.534C1095.21 109.956 1095.33 109.265 1095.33 108.46C1095.33 107.674 1095.21 106.981 1094.98 106.379C1094.74 105.778 1094.39 105.307 1093.93 104.966C1093.46 104.625 1092.89 104.455 1092.21 104.455C1091.5 104.455 1090.9 104.634 1090.43 104.994C1089.96 105.354 1089.61 105.837 1089.37 106.443C1089.14 107.049 1089.02 107.722 1089.02 108.46C1089.02 109.218 1089.14 109.888 1089.38 110.47C1089.62 111.048 1089.98 111.502 1090.45 111.834C1090.92 112.161 1091.51 112.324 1092.21 112.324ZM1103.36 114.256C1102.67 114.256 1102.04 114.125 1101.48 113.865C1100.91 113.6 1100.46 113.219 1100.13 112.722C1099.8 112.22 1099.64 111.614 1099.64 110.903C1099.64 110.278 1099.76 109.772 1100.01 109.384C1100.25 108.991 1100.58 108.683 1100.99 108.46C1101.4 108.238 1101.86 108.072 1102.36 107.963C1102.86 107.849 1103.36 107.759 1103.87 107.693C1104.53 107.608 1105.07 107.544 1105.48 107.501C1105.9 107.454 1106.2 107.376 1106.39 107.267C1106.58 107.158 1106.68 106.969 1106.68 106.699V106.642C1106.68 105.941 1106.49 105.397 1106.11 105.009C1105.73 104.62 1105.15 104.426 1104.38 104.426C1103.58 104.426 1102.95 104.601 1102.5 104.952C1102.04 105.302 1101.72 105.676 1101.54 106.074L1099.95 105.506C1100.23 104.843 1100.61 104.327 1101.08 103.957C1101.56 103.583 1102.08 103.323 1102.65 103.176C1103.22 103.025 1103.77 102.949 1104.32 102.949C1104.67 102.949 1105.08 102.991 1105.53 103.077C1105.99 103.157 1106.43 103.325 1106.86 103.581C1107.29 103.837 1107.65 104.223 1107.93 104.739C1108.22 105.255 1108.36 105.946 1108.36 106.812V114H1106.68V112.523H1106.6C1106.48 112.759 1106.29 113.013 1106.03 113.283C1105.76 113.553 1105.41 113.782 1104.97 113.972C1104.53 114.161 1103.99 114.256 1103.36 114.256ZM1103.61 112.75C1104.28 112.75 1104.83 112.62 1105.29 112.359C1105.75 112.099 1106.09 111.763 1106.33 111.351C1106.56 110.939 1106.68 110.506 1106.68 110.051V108.517C1106.61 108.602 1106.45 108.68 1106.21 108.751C1105.98 108.818 1105.7 108.877 1105.39 108.929C1105.08 108.976 1104.78 109.019 1104.49 109.057C1104.2 109.09 1103.96 109.118 1103.78 109.142C1103.35 109.199 1102.94 109.291 1102.56 109.419C1102.19 109.542 1101.89 109.729 1101.65 109.98C1101.43 110.226 1101.31 110.562 1101.31 110.989C1101.31 111.571 1101.53 112.011 1101.96 112.31C1102.39 112.603 1102.95 112.75 1103.61 112.75ZM1115.64 114.227C1114.73 114.227 1113.92 113.998 1113.23 113.538C1112.53 113.074 1111.99 112.421 1111.6 111.578C1111.2 110.731 1111.01 109.729 1111.01 108.574C1111.01 107.428 1111.2 106.434 1111.6 105.591C1111.99 104.748 1112.53 104.097 1113.24 103.638C1113.94 103.179 1114.75 102.949 1115.66 102.949C1116.37 102.949 1116.94 103.067 1117.35 103.304C1117.76 103.536 1118.08 103.801 1118.3 104.099C1118.52 104.393 1118.69 104.634 1118.82 104.824H1118.96V99.4545H1120.64V114H1119.02V112.324H1118.82C1118.69 112.523 1118.52 112.774 1118.29 113.077C1118.07 113.375 1117.74 113.643 1117.32 113.879C1116.9 114.111 1116.34 114.227 1115.64 114.227ZM1115.86 112.722C1116.54 112.722 1117.1 112.546 1117.57 112.196C1118.03 111.841 1118.38 111.351 1118.63 110.726C1118.87 110.096 1118.99 109.369 1118.99 108.545C1118.99 107.731 1118.87 107.018 1118.63 106.408C1118.4 105.792 1118.05 105.314 1117.58 104.973C1117.12 104.627 1116.55 104.455 1115.86 104.455C1115.15 104.455 1114.56 104.637 1114.09 105.001C1113.62 105.361 1113.27 105.851 1113.03 106.472C1112.8 107.087 1112.68 107.778 1112.68 108.545C1112.68 109.322 1112.8 110.027 1113.04 110.662C1113.28 111.292 1113.63 111.794 1114.1 112.168C1114.58 112.537 1115.16 112.722 1115.86 112.722ZM1128.47 114.227C1127.49 114.227 1126.62 113.993 1125.88 113.524C1125.14 113.055 1124.56 112.4 1124.15 111.557C1123.73 110.714 1123.53 109.729 1123.53 108.602C1123.53 107.466 1123.73 106.474 1124.15 105.626C1124.56 104.779 1125.14 104.121 1125.88 103.652C1126.62 103.183 1127.49 102.949 1128.47 102.949C1129.46 102.949 1130.32 103.183 1131.06 103.652C1131.8 104.121 1132.38 104.779 1132.79 105.626C1133.21 106.474 1133.41 107.466 1133.41 108.602C1133.41 109.729 1133.21 110.714 1132.79 111.557C1132.38 112.4 1131.8 113.055 1131.06 113.524C1130.32 113.993 1129.46 114.227 1128.47 114.227ZM1128.47 112.722C1129.22 112.722 1129.83 112.53 1130.32 112.146C1130.8 111.763 1131.16 111.259 1131.39 110.634C1131.62 110.009 1131.74 109.331 1131.74 108.602C1131.74 107.873 1131.62 107.194 1131.39 106.564C1131.16 105.934 1130.8 105.425 1130.32 105.037C1129.83 104.649 1129.22 104.455 1128.47 104.455C1127.72 104.455 1127.11 104.649 1126.62 105.037C1126.14 105.425 1125.78 105.934 1125.55 106.564C1125.32 107.194 1125.2 107.873 1125.2 108.602C1125.2 109.331 1125.32 110.009 1125.55 110.634C1125.78 111.259 1126.14 111.763 1126.62 112.146C1127.11 112.53 1127.72 112.722 1128.47 112.722Z" fill="black"/>
</svg>
