<svg width="24" height="23" viewBox="0 0 24 23" fill="none" xmlns="http://www.w3.org/2000/svg">
<path d="M13.3929 0H16.6457C16.8823 1.02781 17.5329 2.32444 18.6746 3.611C19.7918 4.87169 21.2736 5.75 23.25 5.75V8.625C20.3701 8.625 18.2064 7.45488 16.6786 5.99581V15.8125C16.6786 17.2341 16.1968 18.6237 15.2942 19.8057C14.3916 20.9876 13.1087 21.9089 11.6078 22.4529C10.1068 22.9969 8.45518 23.1392 6.86176 22.8619C5.26835 22.5846 3.8047 21.9 2.65591 20.8948C1.50712 19.8896 0.724789 18.609 0.407839 17.2147C0.0908889 15.8205 0.253559 14.3753 0.875279 13.062C1.497 11.7486 2.54984 10.6261 3.90068 9.83631C5.25151 9.04654 6.83966 8.625 8.46429 8.625V11.5C7.48951 11.5 6.53662 11.7529 5.72612 12.2268C4.91562 12.7007 4.28391 13.3742 3.91088 14.1622C3.53785 14.9502 3.44025 15.8173 3.63042 16.6538C3.82059 17.4904 4.28999 18.2588 4.97926 18.8619C5.66854 19.465 6.54672 19.8757 7.50277 20.0421C8.45882 20.2085 9.44979 20.1231 10.3504 19.7967C11.2509 19.4703 12.0207 18.9176 12.5622 18.2084C13.1038 17.4992 13.3929 16.6654 13.3929 15.8125V0Z" fill="white"/>
</svg>
