<svg width="34" height="35" viewBox="0 0 34 35" fill="none" xmlns="http://www.w3.org/2000/svg">
<path d="M30.9333 34.375L19.3833 22.5625C18.4667 23.3125 17.4125 23.9063 16.2208 24.3438C15.0292 24.7813 13.7611 25 12.4167 25C9.08611 25 6.26736 23.8203 3.96042 21.4609C1.65347 19.1016 0.5 16.2187 0.5 12.8125C0.5 9.40625 1.65347 6.52344 3.96042 4.16406C6.26736 1.80469 9.08611 0.625 12.4167 0.625C15.7472 0.625 18.566 1.80469 20.8729 4.16406C23.1799 6.52344 24.3333 9.40625 24.3333 12.8125C24.3333 14.1875 24.1194 15.4844 23.6917 16.7031C23.2639 17.9219 22.6833 19 21.95 19.9375L33.5 31.75L30.9333 34.375ZM12.4167 21.25C14.7083 21.25 16.6563 20.4297 18.2604 18.7891C19.8646 17.1484 20.6667 15.1562 20.6667 12.8125C20.6667 10.4688 19.8646 8.47656 18.2604 6.83594C16.6563 5.19531 14.7083 4.375 12.4167 4.375C10.125 4.375 8.17708 5.19531 6.57292 6.83594C4.96875 8.47656 4.16667 10.4688 4.16667 12.8125C4.16667 15.1562 4.96875 17.1484 6.57292 18.7891C8.17708 20.4297 10.125 21.25 12.4167 21.25Z" fill="white"/>
</svg>
