<svg width="50" height="74" viewBox="0 0 50 74" fill="none" xmlns="http://www.w3.org/2000/svg">
<path d="M5.75122 25.2076C6.81599 34.8417 15.0262 43.2863 25.0069 43.2863C35.7114 43.2863 44.3876 33.5772 44.3876 23.0998C44.3876 23.0103 44.3819 22.9231 44.3808 22.8372C33.3376 21.2412 19.2683 29.7851 5.75122 25.2076Z" fill="white"/>
<path d="M50 23.1748C50 9.3771 43.5136 0.858652 43.5125 0.856232H6.48636C6.48636 0.856232 0 9.3892 0 23.1748C0 36.2768 10.5182 48.447 23.7443 49.1766C23.5898 56.7851 22.9818 64.7083 21.2318 67.4526C18.767 71.3197 10.1284 69.3329 10.1284 73.4566H39.875C39.875 69.3317 31.233 71.3197 28.7682 67.4526C27.0182 64.7083 26.4102 56.7864 26.2557 49.1766C39.4784 48.4482 50 36.2768 50 23.1748ZM25 45.9338C13.8705 45.9338 4.71591 36.5188 3.52955 25.7775C3.44318 24.9983 3.39205 24.2166 3.39205 23.4289C3.39205 11.5103 8.99773 4.13656 8.99773 4.13656H41.0011C41.0023 4.14019 46.508 11.3833 46.6 23.1361C46.6011 23.2329 46.608 23.3285 46.608 23.4289C46.608 35.1091 36.9341 45.9338 25 45.9338Z" fill="white"/>
</svg>
